<?xml version="1.0" encoding="UTF-8"?> <svg xmlns="http://www.w3.org/2000/svg" width="1749pt" height="532pt" viewBox="0 0 1749 532" version="1.1"><g id="#a6a9acfe"><path fill="#a6a9ac" opacity="1.00" d=" M 826.96 27.97 C 837.77 20.75 851.66 19.47 864.11 22.40 C 872.29 24.34 879.51 29.08 885.49 34.87 C 883.19 37.32 880.94 39.81 878.60 42.21 C 872.43 36.25 864.72 31.46 856.05 30.49 C 845.63 28.98 834.54 32.51 827.29 40.22 C 813.50 54.44 814.06 79.83 828.56 93.37 C 838.29 102.90 853.95 104.82 866.15 99.18 C 871.11 96.90 875.40 93.40 879.34 89.66 C 881.62 91.76 883.80 93.97 885.98 96.18 C 879.38 102.95 871.21 108.56 861.82 110.46 C 849.20 113.13 835.26 111.08 824.81 103.21 C 813.16 94.76 806.65 80.26 806.97 65.99 C 806.84 51.07 814.31 36.09 826.96 27.97 Z"></path><path fill="#a6a9ac" opacity="1.00" d=" M 916.75 27.78 C 927.35 20.84 940.84 19.54 953.03 22.26 C 961.43 24.12 968.88 28.94 974.99 34.87 C 972.69 37.32 970.43 39.80 968.12 42.22 C 961.85 36.18 953.99 31.32 945.17 30.45 C 934.74 29.03 923.69 32.70 916.53 40.49 C 902.89 54.87 903.69 80.27 918.36 93.66 C 928.45 103.26 944.60 104.86 956.84 98.61 C 961.33 96.33 965.22 93.07 968.88 89.64 C 971.11 91.78 973.30 93.96 975.47 96.17 C 968.41 103.53 959.35 109.37 949.11 110.88 C 936.76 112.96 923.37 110.45 913.44 102.55 C 902.32 94.04 896.18 79.91 896.47 66.02 C 896.31 50.97 903.93 35.87 916.75 27.78 Z"></path><path fill="#a6a9ac" opacity="1.00" d=" M 997.16 29.12 C 1004.13 22.17 1014.56 20.27 1024.06 21.11 C 1033.75 21.63 1043.06 25.56 1050.51 31.73 C 1048.56 34.33 1046.61 36.92 1044.68 39.53 C 1038.75 34.77 1031.75 31.08 1024.10 30.23 C 1017.45 29.38 1009.94 30.12 1004.78 34.81 C 999.21 39.59 998.98 49.54 1004.89 54.12 C 1009.88 57.92 1016.15 59.40 1022.14 60.88 C 1030.86 62.83 1040.11 65.00 1046.93 71.16 C 1053.34 76.99 1054.34 86.79 1051.74 94.68 C 1049.07 102.73 1041.56 108.28 1033.54 110.27 C 1017.15 114.23 999.17 109.03 987.00 97.46 C 989.08 95.00 991.15 92.53 993.23 90.06 C 999.61 95.90 1007.29 100.72 1015.99 101.99 C 1023.64 103.18 1032.50 102.97 1038.57 97.51 C 1044.64 92.24 1044.60 80.96 1037.36 76.73 C 1025.56 69.65 1010.44 71.01 999.11 62.84 C 988.13 55.52 987.86 37.91 997.16 29.12 Z"></path><path fill="#a6a9ac" opacity="1.00" d=" M 684.63 22.50 C 687.91 22.50 691.20 22.49 694.50 22.50 C 694.51 51.66 694.49 80.83 694.51 109.99 C 691.21 110.00 687.91 110.00 684.62 110.00 C 684.62 80.83 684.62 51.67 684.63 22.50 Z"></path><path fill="#a6a9ac" opacity="1.00" d=" M 720.49 109.99 C 720.51 80.83 720.49 51.66 720.50 22.50 C 733.32 22.49 746.15 22.51 758.97 22.49 C 767.08 22.54 775.57 24.72 781.73 30.23 C 792.32 39.53 792.25 58.33 781.41 67.40 C 777.07 71.16 771.54 73.18 766.00 74.35 C 774.92 86.22 783.84 98.09 792.72 110.00 C 788.59 110.00 784.48 110.01 780.37 109.99 C 771.99 98.63 763.54 87.34 755.15 76.00 C 746.89 76.01 738.63 75.99 730.37 76.01 C 730.38 87.34 730.37 98.67 730.38 110.00 C 727.08 110.00 723.78 110.00 720.49 109.99 M 730.38 67.12 C 739.25 67.10 748.11 67.16 756.98 67.10 C 763.14 67.04 769.67 65.59 774.30 61.28 C 781.15 55.08 781.28 42.79 774.15 36.76 C 769.44 32.75 763.01 31.72 757.01 31.65 C 748.14 31.59 739.26 31.65 730.39 31.62 C 730.37 43.46 730.38 55.29 730.38 67.12 Z"></path></g><g id="#007f5bff"><path fill="#007f5b" opacity="1.00" d=" M 1481.06 178.36 C 1481.78 178.36 1483.23 178.37 1483.96 178.37 C 1508.93 234.99 1533.76 291.67 1558.73 348.29 C 1562.77 356.93 1566.76 365.75 1572.70 373.30 C 1575.14 376.56 1578.82 378.49 1582.59 379.82 C 1582.68 356.96 1582.58 334.10 1582.63 311.24 C 1584.45 311.25 1586.31 311.26 1588.17 311.26 C 1592.00 330.43 1600.35 349.64 1615.90 362.15 C 1628.99 373.41 1647.20 379.32 1664.28 375.20 C 1677.26 372.33 1688.84 360.75 1688.89 346.99 C 1689.12 335.83 1681.68 326.25 1673.08 319.93 C 1659.87 310.45 1644.63 304.42 1630.48 296.57 C 1616.26 288.83 1601.83 280.06 1592.51 266.44 C 1580.63 250.00 1579.60 226.79 1589.16 209.04 C 1596.64 195.49 1609.53 184.92 1624.44 180.61 C 1640.71 176.00 1658.61 177.18 1674.10 183.99 C 1680.06 186.47 1685.69 189.88 1692.04 191.33 C 1695.27 192.15 1699.24 191.10 1700.95 188.04 C 1702.67 184.90 1703.36 181.33 1704.22 177.89 C 1705.70 177.88 1707.20 177.88 1708.72 177.87 C 1709.33 200.08 1709.78 222.29 1710.39 244.49 C 1708.31 244.50 1706.26 244.50 1704.22 244.50 C 1701.56 228.03 1693.46 212.16 1680.24 201.70 C 1668.50 191.69 1652.23 186.61 1637.00 190.15 C 1628.57 191.95 1620.99 197.55 1617.09 205.26 C 1613.06 213.16 1614.11 223.38 1619.85 230.18 C 1628.35 241.00 1641.23 246.70 1653.10 252.94 C 1671.67 262.30 1691.03 271.23 1706.24 285.77 C 1719.27 298.28 1724.98 317.35 1722.03 335.06 C 1719.46 352.58 1707.61 367.65 1692.77 376.77 C 1678.59 385.48 1661.35 388.01 1644.97 386.46 C 1634.37 385.52 1624.31 381.75 1614.56 377.70 C 1609.23 375.55 1602.83 373.27 1597.40 376.36 C 1593.56 378.53 1589.42 381.98 1589.11 386.67 C 1556.24 386.57 1523.36 386.66 1490.49 386.61 C 1490.47 384.73 1490.49 382.87 1490.50 381.00 C 1497.34 380.91 1504.76 381.37 1510.93 377.89 C 1515.72 374.92 1514.94 368.31 1513.14 363.79 C 1508.41 351.97 1503.25 340.33 1498.28 328.62 C 1474.27 328.70 1450.25 328.47 1426.25 328.74 C 1422.33 339.20 1416.53 349.01 1414.11 359.98 C 1412.50 366.39 1414.35 374.25 1420.62 377.43 C 1426.83 380.22 1433.83 380.23 1440.50 381.01 C 1440.49 382.87 1440.48 384.74 1440.51 386.61 C 1386.34 386.64 1332.17 386.61 1278.00 386.62 C 1274.25 386.57 1270.51 386.77 1266.78 386.48 C 1266.83 384.65 1266.87 382.82 1266.90 381.00 C 1274.98 381.03 1284.36 381.63 1290.75 375.70 C 1296.07 370.58 1295.37 362.67 1295.72 355.91 C 1295.79 302.11 1295.72 248.31 1295.76 194.51 C 1283.50 194.73 1270.66 193.25 1259.07 198.17 C 1252.77 200.68 1248.02 205.83 1244.29 211.32 C 1238.98 219.23 1236.14 228.53 1234.65 237.87 C 1232.71 237.87 1230.78 237.87 1228.88 237.88 C 1228.88 219.46 1228.87 201.04 1228.88 182.63 C 1289.96 182.62 1351.04 182.62 1412.12 182.63 C 1412.13 201.05 1412.12 219.46 1412.12 237.88 C 1410.26 237.87 1408.42 237.86 1406.58 237.86 C 1404.59 230.14 1402.32 222.44 1398.77 215.28 C 1394.49 206.69 1386.81 199.90 1377.90 196.43 C 1367.13 193.39 1355.79 194.85 1344.75 194.51 C 1344.76 248.31 1344.71 302.11 1344.78 355.92 C 1345.11 361.28 1344.65 366.99 1346.88 372.01 C 1350.90 378.89 1359.46 381.16 1366.96 381.01 C 1375.99 381.74 1385.25 378.03 1391.23 371.21 C 1396.44 365.09 1400.06 357.83 1403.64 350.68 C 1429.69 293.35 1455.16 235.76 1481.06 178.36 M 1462.69 247.78 C 1452.39 270.99 1442.03 294.17 1431.72 317.37 C 1452.19 317.38 1472.66 317.38 1493.13 317.37 C 1486.15 301.18 1479.13 285.01 1472.14 268.83 C 1468.90 261.85 1466.40 254.50 1462.69 247.78 Z"></path><path fill="#007f5b" opacity="1.00" d=" M 821.31 178.43 C 822.06 178.41 823.56 178.36 824.31 178.34 C 849.08 234.58 873.77 290.85 898.54 347.09 C 902.57 355.89 906.64 364.81 912.48 372.60 C 914.64 375.65 917.79 377.75 921.15 379.32 C 925.38 378.03 929.60 375.95 932.21 372.23 C 936.16 366.67 937.07 359.60 937.25 352.94 C 937.25 304.36 937.26 255.77 937.24 207.19 C 932.98 202.05 929.10 196.40 923.61 192.46 C 918.88 189.09 912.86 188.59 907.25 188.30 C 907.24 186.39 907.26 184.48 907.32 182.58 C 931.46 182.71 955.61 182.54 979.75 182.67 C 1013.16 224.74 1046.61 266.79 1080.10 308.80 C 1080.15 278.54 1080.13 248.28 1080.11 218.02 C 1079.76 210.84 1079.35 203.05 1075.09 196.96 C 1069.35 189.70 1059.43 188.26 1050.75 188.20 C 1050.74 186.34 1050.74 184.48 1050.75 182.63 C 1108.75 182.62 1166.75 182.62 1224.75 182.62 C 1224.73 184.50 1224.73 186.37 1224.75 188.25 C 1216.80 188.26 1207.72 187.70 1201.27 193.22 C 1195.46 198.49 1196.26 206.95 1195.91 214.06 C 1195.83 258.70 1195.90 303.34 1195.87 347.98 C 1195.90 354.73 1195.79 361.53 1196.81 368.23 C 1197.47 373.59 1202.17 377.32 1206.88 379.24 C 1212.56 381.44 1218.78 380.95 1224.76 381.01 C 1224.73 382.87 1224.73 384.75 1224.74 386.63 C 1189.16 386.62 1153.59 386.62 1118.01 386.63 C 1118.00 384.75 1117.99 382.87 1118.00 381.00 C 1125.88 381.02 1134.82 381.61 1141.31 376.26 C 1147.01 371.14 1146.39 362.88 1146.71 355.91 C 1146.79 315.30 1146.72 274.68 1146.75 234.06 C 1146.58 223.38 1147.22 212.64 1146.01 202.01 C 1145.58 194.85 1138.66 190.20 1132.18 188.97 C 1122.56 187.36 1112.58 188.36 1103.35 191.42 C 1097.12 193.54 1093.56 199.94 1092.51 206.11 C 1090.91 215.68 1091.50 225.43 1091.38 235.08 C 1091.37 287.19 1091.38 339.29 1091.37 391.39 C 1089.61 391.36 1087.87 391.34 1086.13 391.33 C 1040.28 334.74 994.31 278.23 948.38 221.69 C 948.39 265.15 948.35 308.61 948.40 352.06 C 948.58 359.45 949.50 367.59 954.72 373.28 C 961.22 379.73 970.78 381.59 979.63 381.01 C 979.61 382.88 979.61 384.75 979.62 386.62 C 930.04 386.63 880.46 386.63 830.88 386.62 C 830.87 384.74 830.87 382.87 830.87 381.01 C 837.84 380.89 845.44 381.41 851.63 377.65 C 855.98 374.61 855.26 368.50 853.61 364.15 C 848.91 352.20 843.61 340.49 838.68 328.64 C 814.71 328.60 790.73 328.64 766.76 328.62 C 763.62 335.87 760.44 343.11 757.39 350.40 C 755.22 356.00 753.25 362.06 754.26 368.13 C 755.03 372.93 758.74 377.05 763.39 378.43 C 769.07 380.07 775.01 380.45 780.88 381.00 C 780.86 382.87 780.86 384.75 780.87 386.63 C 730.11 386.61 679.37 386.65 628.62 386.61 C 628.61 384.73 628.62 382.87 628.63 381.00 C 635.03 380.98 641.74 381.42 647.75 378.78 C 652.55 376.91 655.87 372.12 656.54 367.09 C 657.58 359.43 657.16 351.68 657.25 343.98 C 657.18 296.55 657.38 249.12 657.15 201.70 C 630.89 263.20 605.26 324.99 579.26 386.61 C 577.98 386.61 576.71 386.61 575.44 386.62 C 549.07 325.23 522.67 263.86 496.28 202.48 C 496.21 247.65 496.27 292.81 496.25 337.98 C 496.32 345.67 496.03 353.37 496.57 361.05 C 496.92 367.72 501.22 373.74 506.83 377.15 C 512.63 380.45 519.49 380.85 526.01 381.05 C 525.99 382.90 525.98 384.77 525.99 386.63 C 502.70 386.62 479.42 386.62 456.13 386.63 C 456.13 384.76 456.12 382.89 456.12 381.02 C 464.14 381.31 472.92 379.62 478.74 373.69 C 482.89 368.85 484.83 362.31 484.60 355.98 C 484.66 311.99 484.61 268.00 484.62 224.01 C 484.55 216.02 484.96 207.94 483.59 200.03 C 482.64 195.16 478.21 191.93 473.89 190.13 C 467.21 187.61 459.92 188.32 452.93 188.32 C 445.84 188.39 438.21 190.92 434.07 197.02 C 429.90 202.78 429.64 210.18 429.51 217.02 C 429.50 242.68 429.51 268.35 429.50 294.02 C 429.36 311.80 429.37 329.84 425.18 347.23 C 421.06 362.66 408.60 374.37 395.19 382.19 C 382.02 389.28 366.82 391.39 352.04 391.51 C 337.55 391.36 322.43 390.44 309.27 383.79 C 299.67 378.96 290.73 372.26 284.76 363.20 C 274.48 347.20 274.36 327.38 274.62 309.03 C 274.62 279.01 274.63 248.99 274.62 218.97 C 274.48 212.66 274.56 206.30 273.40 200.08 C 272.57 195.53 268.93 191.93 264.77 190.21 C 260.06 188.45 254.95 188.44 250.00 188.27 C 244.27 188.22 238.25 188.30 233.03 190.97 C 228.82 193.00 225.83 197.26 225.15 201.85 C 224.25 207.87 224.37 213.98 224.38 220.05 C 224.38 263.37 224.38 306.69 224.38 350.01 C 224.38 356.33 224.26 362.71 225.35 368.96 C 226.07 373.40 229.80 376.57 233.62 378.51 C 239.65 381.53 246.60 380.95 253.14 381.00 C 253.12 382.88 253.11 384.77 253.06 386.65 C 217.54 386.57 182.01 386.66 146.49 386.61 C 146.49 384.73 146.50 382.86 146.50 381.00 C 154.46 381.03 163.59 381.61 169.96 375.93 C 174.95 371.39 174.88 364.21 175.10 358.00 C 175.16 334.88 175.11 311.75 175.12 288.63 C 151.16 288.62 127.21 288.61 103.25 288.63 C 103.26 310.09 103.25 331.55 103.25 353.01 C 103.38 358.56 103.31 364.17 104.47 369.62 C 105.55 373.99 109.42 376.95 113.28 378.84 C 119.19 381.50 125.83 380.95 132.14 381.00 C 132.14 382.89 132.11 384.78 132.02 386.68 C 96.47 386.55 60.93 386.66 25.38 386.62 C 25.38 384.75 25.37 382.88 25.37 381.01 C 32.09 380.97 39.21 381.49 45.41 378.39 C 49.92 376.38 52.77 371.71 53.38 366.92 C 54.18 360.65 54.12 354.32 54.13 348.01 C 54.12 304.01 54.13 260.02 54.12 216.02 C 54.01 210.68 54.04 205.28 53.03 200.02 C 52.18 195.54 48.31 192.42 44.41 190.53 C 38.46 187.81 31.75 188.32 25.38 188.25 C 25.38 186.37 25.38 184.50 25.38 182.63 C 60.96 182.62 96.54 182.62 132.12 182.63 C 132.12 184.50 132.12 186.37 132.12 188.25 C 124.10 188.26 114.89 187.70 108.44 193.40 C 103.05 198.42 103.62 206.30 103.30 213.02 C 103.18 233.76 103.29 254.50 103.25 275.25 C 127.21 275.25 151.16 275.25 175.12 275.25 C 175.09 253.50 175.20 231.75 175.07 210.01 C 174.67 204.41 175.16 197.61 170.26 193.71 C 163.87 187.81 154.61 188.19 146.50 188.25 C 146.50 186.37 146.50 184.49 146.50 182.62 C 215.50 182.63 284.50 182.62 353.50 182.62 C 353.49 184.49 353.49 186.37 353.50 188.24 C 346.73 188.41 339.71 187.89 333.23 190.18 C 328.84 191.99 325.36 196.08 324.76 200.85 C 323.58 208.49 323.77 216.26 323.75 223.97 C 323.75 253.97 323.75 283.97 323.75 313.97 C 323.75 325.68 323.65 337.51 325.89 349.05 C 327.97 360.41 337.33 369.28 347.85 373.24 C 358.11 376.81 369.42 376.74 379.94 374.33 C 395.79 370.66 408.91 357.70 413.03 342.00 C 416.22 329.61 416.51 316.72 416.74 304.01 C 416.76 275.99 416.74 247.98 416.75 219.97 C 416.65 213.97 416.55 207.85 414.74 202.09 C 413.18 197.59 410.17 193.28 405.71 191.30 C 400.00 188.78 393.65 188.41 387.50 188.26 C 387.50 186.38 387.50 184.50 387.50 182.63 C 438.12 182.57 488.75 182.72 539.38 182.55 C 558.70 227.24 577.54 272.13 596.77 316.85 C 615.21 272.12 633.62 227.37 652.04 182.63 C 679.73 182.62 707.43 182.62 735.12 182.63 C 735.11 184.50 735.11 186.37 735.12 188.25 C 728.61 188.30 721.76 187.88 715.68 190.66 C 710.83 192.71 707.53 197.69 707.10 202.88 C 706.27 209.55 706.55 216.29 706.50 222.99 C 706.51 267.64 706.48 312.30 706.52 356.95 C 706.77 361.87 706.52 367.03 708.33 371.70 C 710.47 375.62 714.55 378.70 718.93 379.49 C 727.36 377.00 733.45 370.06 737.62 362.63 C 746.51 347.20 752.89 330.52 760.40 314.41 C 780.69 269.08 801.07 223.79 821.31 178.43 M 772.06 317.37 C 792.54 317.39 813.01 317.37 833.49 317.38 C 823.40 294.08 813.35 270.77 803.24 247.49 C 792.75 270.73 782.48 294.08 772.06 317.37 Z"></path><path fill="#007f5b" opacity="1.00" d=" M 25.75 422.51 C 588.29 422.49 1150.83 422.49 1713.38 422.51 C 1713.37 450.67 1713.38 478.83 1713.37 507.00 C 1150.83 507.00 588.29 507.00 25.75 506.99 C 25.75 478.83 25.75 450.67 25.75 422.51 M 526.41 443.34 C 523.16 449.85 524.15 459.25 530.70 463.36 C 537.67 468.15 546.63 467.94 554.00 471.79 C 557.88 473.61 558.38 479.42 555.18 482.12 C 551.71 485.11 546.70 485.07 542.43 484.33 C 537.15 483.45 532.55 480.48 528.51 477.12 C 526.45 479.61 524.35 482.08 522.27 484.56 C 531.75 493.19 546.43 496.80 558.39 491.51 C 567.86 487.49 570.88 473.55 563.87 466.05 C 557.95 460.30 549.29 459.67 541.84 457.15 C 538.98 456.14 535.40 454.57 535.11 451.11 C 534.31 447.34 537.55 444.11 541.03 443.42 C 547.99 441.83 554.85 445.12 560.42 449.03 C 562.24 446.38 564.11 443.77 565.96 441.15 C 559.57 435.94 551.25 433.33 543.04 433.86 C 536.45 434.12 529.50 437.25 526.41 443.34 M 656.11 434.24 C 647.50 453.85 638.95 473.49 630.37 493.12 C 633.92 493.13 637.48 493.12 641.04 493.12 C 643.06 488.42 645.06 483.71 647.07 479.00 C 656.23 479.02 665.39 478.95 674.56 479.04 C 676.41 483.71 678.52 488.29 680.29 493.00 C 684.00 493.24 687.73 493.09 691.45 493.12 C 682.89 473.49 674.31 453.88 665.74 434.25 C 662.53 434.25 659.32 434.25 656.11 434.24 M 766.00 443.99 C 755.75 455.93 756.67 475.89 768.51 486.46 C 780.63 497.83 801.77 496.33 812.51 483.73 C 810.29 481.46 808.04 479.22 805.80 476.98 C 802.38 479.98 798.66 482.95 794.10 483.91 C 787.98 485.47 781.09 483.99 776.45 479.64 C 769.12 472.96 767.80 461.07 772.74 452.62 C 776.16 446.56 783.12 442.70 790.10 443.22 C 795.96 443.38 801.18 446.60 805.38 450.47 C 807.59 447.94 809.74 445.34 812.04 442.89 C 800.21 430.12 777.15 430.48 766.00 443.99 M 996.18 434.27 C 987.23 435.97 979.23 442.01 975.25 450.21 C 969.37 461.93 971.80 477.45 981.65 486.30 C 993.61 497.41 1014.51 496.63 1025.41 484.40 C 1035.95 473.21 1035.85 453.90 1025.13 442.86 C 1017.89 435.10 1006.44 432.18 996.18 434.27 M 1044.98 443.92 C 1042.22 450.17 1043.09 458.77 1048.98 462.95 C 1056.06 468.20 1065.47 467.81 1073.05 471.91 C 1076.80 473.78 1077.13 479.40 1074.10 482.08 C 1070.82 484.96 1066.06 485.06 1061.97 484.44 C 1056.47 483.66 1051.57 480.72 1047.46 477.12 C 1045.28 479.56 1043.20 482.09 1041.12 484.61 C 1047.17 489.93 1054.89 493.41 1062.98 493.86 C 1069.91 494.37 1077.69 492.95 1082.54 487.56 C 1088.25 481.10 1088.16 469.27 1080.59 464.25 C 1073.52 459.11 1064.18 459.53 1056.72 455.29 C 1052.27 452.83 1053.38 445.61 1058.05 444.06 C 1065.31 441.21 1073.28 444.65 1079.15 449.04 C 1081.14 446.48 1082.93 443.78 1084.83 441.16 C 1077.94 435.52 1068.76 432.95 1059.94 434.04 C 1053.80 434.74 1047.61 438.13 1044.98 443.92 M 1247.66 434.29 C 1239.14 453.92 1230.52 473.50 1221.98 493.12 C 1225.53 493.13 1229.10 493.13 1232.66 493.12 C 1234.73 488.40 1236.59 483.58 1238.81 478.92 C 1247.91 479.10 1257.01 478.95 1266.12 479.00 C 1268.10 483.70 1270.06 488.42 1272.06 493.13 C 1275.72 493.12 1279.39 493.13 1283.06 493.12 C 1274.52 473.50 1265.91 453.90 1257.38 434.28 C 1254.13 434.23 1250.89 434.23 1247.66 434.29 M 410.13 434.63 C 410.13 454.13 410.12 473.62 410.13 493.12 C 413.58 493.12 417.03 493.12 420.48 493.13 C 420.52 486.33 420.48 479.54 420.50 472.75 C 424.74 472.74 428.97 472.75 433.21 472.74 C 438.07 479.52 442.77 486.41 447.68 493.16 C 451.78 493.10 455.87 493.14 459.97 493.11 C 454.74 485.77 449.50 478.43 444.27 471.09 C 447.00 470.05 449.77 468.93 452.01 466.99 C 459.27 460.97 459.89 449.09 454.29 441.77 C 450.17 436.67 443.33 434.75 437.01 434.64 C 428.05 434.59 419.09 434.64 410.13 434.63 M 470.37 493.10 C 484.99 493.16 499.62 493.11 514.25 493.12 C 514.25 490.04 514.25 486.96 514.25 483.88 C 503.08 483.86 491.92 483.88 480.75 483.87 C 480.75 478.66 480.74 473.46 480.75 468.25 C 490.50 468.25 500.25 468.25 509.99 468.25 C 510.00 465.16 510.00 462.08 510.00 459.00 C 500.25 458.99 490.50 459.01 480.75 459.00 C 480.75 453.95 480.74 448.92 480.75 443.88 C 491.75 443.86 502.75 443.89 513.75 443.87 C 513.74 440.79 513.75 437.71 513.75 434.63 C 499.30 434.61 484.84 434.63 470.39 434.62 C 470.35 454.11 470.39 473.60 470.37 493.10 M 579.63 434.63 C 579.62 454.13 579.62 473.62 579.63 493.12 C 594.21 493.13 608.79 493.13 623.37 493.12 C 623.38 490.04 623.38 486.96 623.37 483.88 C 612.25 483.87 601.13 483.87 590.01 483.88 C 590.00 478.66 589.99 473.45 590.01 468.24 C 599.75 468.25 609.50 468.25 619.24 468.25 C 619.25 465.16 619.25 462.08 619.25 459.00 C 609.50 458.99 599.75 459.00 590.00 459.00 C 590.00 453.96 589.99 448.92 590.00 443.88 C 601.00 443.87 612.00 443.87 622.99 443.88 C 623.00 440.79 623.00 437.71 623.00 434.62 C 608.54 434.62 594.08 434.62 579.63 434.63 M 701.25 434.63 C 701.26 454.13 701.24 473.63 701.25 493.12 C 704.71 493.13 708.16 493.13 711.63 493.10 C 711.62 486.32 711.62 479.54 711.63 472.75 C 715.85 472.74 720.07 472.76 724.30 472.74 C 729.16 479.51 733.88 486.38 738.75 493.15 C 742.85 493.10 746.96 493.13 751.08 493.12 C 745.83 485.78 740.61 478.42 735.35 471.09 C 737.84 470.13 740.38 469.15 742.50 467.48 C 751.66 460.67 751.29 444.56 741.62 438.37 C 737.31 435.54 732.05 434.62 726.97 434.62 C 718.39 434.63 709.82 434.61 701.25 434.63 M 823.00 434.63 C 823.00 454.12 823.00 473.62 823.00 493.12 C 826.46 493.13 829.91 493.13 833.37 493.12 C 833.39 484.91 833.36 476.70 833.39 468.50 C 842.63 468.51 851.87 468.49 861.12 468.50 C 861.13 476.71 861.11 484.92 861.13 493.12 C 864.61 493.10 868.09 493.21 871.57 493.01 C 871.40 473.55 871.56 454.09 871.49 434.62 C 868.03 434.62 864.58 434.62 861.13 434.63 C 861.12 442.71 861.12 450.79 861.12 458.87 C 851.87 458.87 842.62 458.88 833.37 458.86 C 833.38 450.78 833.38 442.71 833.37 434.63 C 829.91 434.62 826.46 434.62 823.00 434.63 M 911.44 492.78 C 914.61 493.62 918.34 492.88 921.75 493.13 C 921.75 484.92 921.74 476.71 921.75 468.51 C 931.00 468.50 940.25 468.50 949.50 468.50 C 949.51 476.71 949.48 484.92 949.51 493.12 C 952.95 493.13 956.41 493.13 959.87 493.12 C 959.88 473.62 959.87 454.13 959.87 434.63 C 956.41 434.62 952.96 434.62 949.51 434.62 C 949.48 442.71 949.51 450.79 949.49 458.88 C 940.24 458.87 931.00 458.88 921.75 458.87 C 921.75 450.79 921.74 442.71 921.75 434.63 C 918.29 434.62 914.84 434.62 911.39 434.62 C 911.40 454.00 911.30 473.40 911.44 492.78 M 1098.62 493.20 C 1102.03 493.08 1105.45 493.12 1108.87 493.12 C 1108.88 486.87 1108.87 480.63 1108.88 474.38 C 1116.15 474.14 1123.70 475.24 1130.70 472.69 C 1136.20 470.81 1141.03 466.54 1142.78 460.90 C 1144.82 454.25 1143.85 446.27 1138.93 441.09 C 1134.64 436.47 1128.13 434.70 1122.01 434.63 C 1114.17 434.60 1106.34 434.64 1098.51 434.62 C 1098.56 454.15 1098.35 473.68 1098.62 493.20 M 1154.75 434.63 C 1154.75 454.13 1154.74 473.62 1154.75 493.12 C 1158.20 493.13 1161.66 493.13 1165.12 493.12 C 1165.13 473.62 1165.13 454.13 1165.12 434.63 C 1161.66 434.62 1158.20 434.62 1154.75 434.63 M 1176.38 434.63 C 1176.36 437.83 1176.37 441.04 1176.38 444.25 C 1182.54 444.25 1188.70 444.25 1194.87 444.25 C 1194.89 460.54 1194.86 476.83 1194.88 493.12 C 1198.37 493.13 1201.87 493.13 1205.37 493.12 C 1205.38 476.83 1205.38 460.54 1205.37 444.26 C 1211.54 444.24 1217.70 444.25 1223.87 444.25 C 1223.87 441.04 1223.87 437.83 1223.87 434.62 C 1208.04 434.63 1192.21 434.62 1176.38 434.63 M 1292.88 434.63 C 1292.87 454.13 1292.87 473.62 1292.88 493.12 C 1306.54 493.13 1320.20 493.13 1333.87 493.12 C 1333.87 489.95 1333.87 486.79 1333.87 483.63 C 1323.66 483.62 1313.46 483.62 1303.25 483.63 C 1303.24 467.29 1303.26 450.96 1303.25 434.63 C 1299.78 434.62 1296.33 434.62 1292.88 434.63 Z"></path><path fill="#007f5b" opacity="1.00" d=" M 998.50 443.60 C 1005.26 442.13 1012.71 444.49 1017.22 449.77 C 1024.58 458.07 1024.05 472.23 1015.69 479.65 C 1008.95 485.85 997.75 486.09 990.67 480.34 C 983.17 474.50 981.02 463.41 984.80 454.87 C 987.18 449.18 992.43 444.77 998.50 443.60 Z"></path><path fill="#007f5b" opacity="1.00" d=" M 420.49 444.14 C 426.39 444.22 432.30 443.90 438.19 444.29 C 442.79 444.57 447.42 448.06 447.40 452.98 C 448.06 457.99 444.02 462.46 439.20 463.18 C 433.02 464.06 426.73 463.44 420.50 463.62 C 420.50 457.12 420.51 450.63 420.49 444.14 Z"></path><path fill="#007f5b" opacity="1.00" d=" M 711.62 444.14 C 718.68 444.56 726.04 443.08 732.89 445.21 C 740.27 447.61 740.33 459.33 733.26 462.19 C 726.39 464.84 718.80 463.14 711.62 463.61 C 711.62 457.12 711.63 450.63 711.62 444.14 Z"></path><path fill="#007f5b" opacity="1.00" d=" M 1108.88 444.13 C 1115.33 444.56 1122.25 442.90 1128.32 445.77 C 1134.68 448.96 1134.86 459.19 1128.82 462.81 C 1122.83 466.44 1115.48 464.52 1108.88 465.00 C 1108.87 458.04 1108.87 451.08 1108.88 444.13 Z"></path><path fill="#007f5b" opacity="1.00" d=" M 650.84 469.88 C 654.12 462.16 657.44 454.46 660.74 446.76 C 664.09 454.45 667.40 462.17 670.74 469.87 C 664.11 469.88 657.47 469.87 650.84 469.88 Z"></path><path fill="#007f5b" opacity="1.00" d=" M 1252.36 446.72 C 1255.67 454.44 1259.01 462.15 1262.35 469.87 C 1255.72 469.88 1249.08 469.87 1242.46 469.87 C 1245.77 462.16 1249.04 454.43 1252.36 446.72 Z"></path></g><g id="#ffffffff"><path fill="#ffffff" opacity="1.00" d=" M 526.41 443.34 C 529.50 437.25 536.45 434.12 543.04 433.86 C 551.25 433.33 559.57 435.94 565.96 441.15 C 564.11 443.77 562.24 446.38 560.42 449.03 C 554.85 445.12 547.99 441.83 541.03 443.42 C 537.55 444.11 534.31 447.34 535.11 451.11 C 535.40 454.57 538.98 456.14 541.84 457.15 C 549.29 459.67 557.95 460.30 563.87 466.05 C 570.88 473.55 567.86 487.49 558.39 491.51 C 546.43 496.80 531.75 493.19 522.27 484.56 C 524.35 482.08 526.45 479.61 528.51 477.12 C 532.55 480.48 537.15 483.45 542.43 484.33 C 546.70 485.07 551.71 485.11 555.18 482.12 C 558.38 479.42 557.88 473.61 554.00 471.79 C 546.63 467.94 537.67 468.15 530.70 463.36 C 524.15 459.25 523.16 449.85 526.41 443.34 Z"></path><path fill="#ffffff" opacity="1.00" d=" M 656.11 434.24 C 659.32 434.25 662.53 434.25 665.74 434.25 C 674.31 453.88 682.89 473.49 691.45 493.12 C 687.73 493.09 684.00 493.24 680.29 493.00 C 678.52 488.29 676.41 483.71 674.56 479.04 C 665.39 478.95 656.23 479.02 647.07 479.00 C 645.06 483.71 643.06 488.42 641.04 493.12 C 637.48 493.12 633.92 493.13 630.37 493.12 C 638.95 473.49 647.50 453.85 656.11 434.24 M 650.84 469.88 C 657.47 469.87 664.11 469.88 670.74 469.87 C 667.40 462.17 664.09 454.45 660.74 446.76 C 657.44 454.46 654.12 462.16 650.84 469.88 Z"></path><path fill="#ffffff" opacity="1.00" d=" M 766.00 443.99 C 777.15 430.48 800.21 430.12 812.04 442.89 C 809.74 445.34 807.59 447.94 805.38 450.47 C 801.18 446.60 795.96 443.38 790.10 443.22 C 783.12 442.70 776.16 446.56 772.74 452.62 C 767.80 461.07 769.12 472.96 776.45 479.64 C 781.09 483.99 787.98 485.47 794.10 483.91 C 798.66 482.95 802.38 479.98 805.80 476.98 C 808.04 479.22 810.29 481.46 812.51 483.73 C 801.77 496.33 780.63 497.83 768.51 486.46 C 756.67 475.89 755.75 455.93 766.00 443.99 Z"></path><path fill="#ffffff" opacity="1.00" d=" M 996.18 434.27 C 1006.44 432.18 1017.89 435.10 1025.13 442.86 C 1035.85 453.90 1035.95 473.21 1025.41 484.40 C 1014.51 496.63 993.61 497.41 981.65 486.30 C 971.80 477.45 969.37 461.93 975.25 450.21 C 979.23 442.01 987.23 435.97 996.18 434.27 M 998.50 443.60 C 992.43 444.77 987.18 449.18 984.80 454.87 C 981.02 463.41 983.17 474.50 990.67 480.34 C 997.75 486.09 1008.95 485.85 1015.69 479.65 C 1024.05 472.23 1024.58 458.07 1017.22 449.77 C 1012.71 444.49 1005.26 442.13 998.50 443.60 Z"></path><path fill="#ffffff" opacity="1.00" d=" M 1044.98 443.92 C 1047.61 438.13 1053.80 434.74 1059.94 434.04 C 1068.76 432.95 1077.94 435.52 1084.83 441.16 C 1082.93 443.78 1081.14 446.48 1079.15 449.04 C 1073.28 444.65 1065.31 441.21 1058.05 444.06 C 1053.38 445.61 1052.27 452.83 1056.72 455.29 C 1064.18 459.53 1073.52 459.11 1080.59 464.25 C 1088.16 469.27 1088.25 481.10 1082.54 487.56 C 1077.69 492.95 1069.91 494.37 1062.98 493.86 C 1054.89 493.41 1047.17 489.93 1041.12 484.61 C 1043.20 482.09 1045.28 479.56 1047.46 477.12 C 1051.57 480.72 1056.47 483.66 1061.97 484.44 C 1066.06 485.06 1070.82 484.96 1074.10 482.08 C 1077.13 479.40 1076.80 473.78 1073.05 471.91 C 1065.47 467.81 1056.06 468.20 1048.98 462.95 C 1043.09 458.77 1042.22 450.17 1044.98 443.92 Z"></path><path fill="#ffffff" opacity="1.00" d=" M 1247.66 434.29 C 1250.89 434.23 1254.13 434.23 1257.38 434.28 C 1265.91 453.90 1274.52 473.50 1283.06 493.12 C 1279.39 493.13 1275.72 493.12 1272.06 493.13 C 1270.06 488.42 1268.10 483.70 1266.12 479.00 C 1257.01 478.95 1247.91 479.10 1238.81 478.92 C 1236.59 483.58 1234.73 488.40 1232.66 493.12 C 1229.10 493.13 1225.53 493.13 1221.98 493.12 C 1230.52 473.50 1239.14 453.92 1247.66 434.29 M 1252.36 446.72 C 1249.04 454.43 1245.77 462.16 1242.46 469.87 C 1249.08 469.87 1255.72 469.88 1262.35 469.87 C 1259.01 462.15 1255.67 454.44 1252.36 446.72 Z"></path><path fill="#ffffff" opacity="1.00" d=" M 410.13 434.63 C 419.09 434.64 428.05 434.59 437.01 434.64 C 443.33 434.75 450.17 436.67 454.29 441.77 C 459.89 449.09 459.27 460.97 452.01 466.99 C 449.77 468.93 447.00 470.05 444.27 471.09 C 449.50 478.43 454.74 485.77 459.97 493.11 C 455.87 493.14 451.78 493.10 447.68 493.16 C 442.77 486.41 438.07 479.52 433.21 472.74 C 428.97 472.75 424.74 472.74 420.50 472.75 C 420.48 479.54 420.52 486.33 420.48 493.13 C 417.03 493.12 413.58 493.12 410.13 493.12 C 410.12 473.62 410.13 454.13 410.13 434.63 M 420.49 444.14 C 420.51 450.63 420.50 457.12 420.50 463.62 C 426.73 463.44 433.02 464.06 439.20 463.18 C 444.02 462.46 448.06 457.99 447.40 452.98 C 447.42 448.06 442.79 444.57 438.19 444.29 C 432.30 443.90 426.39 444.22 420.49 444.14 Z"></path><path fill="#ffffff" opacity="1.00" d=" M 470.37 493.10 C 470.39 473.60 470.35 454.11 470.39 434.62 C 484.84 434.63 499.30 434.61 513.75 434.63 C 513.75 437.71 513.74 440.79 513.75 443.87 C 502.75 443.89 491.75 443.86 480.75 443.88 C 480.74 448.92 480.75 453.95 480.75 459.00 C 490.50 459.01 500.25 458.99 510.00 459.00 C 510.00 462.08 510.00 465.16 509.99 468.25 C 500.25 468.25 490.50 468.25 480.75 468.25 C 480.74 473.46 480.75 478.66 480.75 483.87 C 491.92 483.88 503.08 483.86 514.25 483.88 C 514.25 486.96 514.25 490.04 514.25 493.12 C 499.62 493.11 484.99 493.16 470.37 493.10 Z"></path><path fill="#ffffff" opacity="1.00" d=" M 579.63 434.63 C 594.08 434.62 608.54 434.62 623.00 434.62 C 623.00 437.71 623.00 440.79 622.99 443.88 C 612.00 443.87 601.00 443.87 590.00 443.88 C 589.99 448.92 590.00 453.96 590.00 459.00 C 599.75 459.00 609.50 458.99 619.25 459.00 C 619.25 462.08 619.25 465.16 619.24 468.25 C 609.50 468.25 599.75 468.25 590.01 468.24 C 589.99 473.45 590.00 478.66 590.01 483.88 C 601.13 483.87 612.25 483.87 623.37 483.88 C 623.38 486.96 623.38 490.04 623.37 493.12 C 608.79 493.13 594.21 493.13 579.63 493.12 C 579.62 473.62 579.62 454.13 579.63 434.63 Z"></path><path fill="#ffffff" opacity="1.00" d=" M 701.25 434.63 C 709.82 434.61 718.39 434.63 726.97 434.62 C 732.05 434.62 737.31 435.54 741.62 438.37 C 751.29 444.56 751.66 460.67 742.50 467.48 C 740.38 469.15 737.84 470.13 735.35 471.09 C 740.61 478.42 745.83 485.78 751.08 493.12 C 746.96 493.13 742.85 493.10 738.75 493.15 C 733.88 486.38 729.16 479.51 724.30 472.74 C 720.07 472.76 715.85 472.74 711.63 472.75 C 711.62 479.54 711.62 486.32 711.63 493.10 C 708.16 493.13 704.71 493.13 701.25 493.12 C 701.24 473.63 701.26 454.13 701.25 434.63 M 711.62 444.14 C 711.63 450.63 711.62 457.12 711.62 463.61 C 718.80 463.14 726.39 464.84 733.26 462.19 C 740.33 459.33 740.27 447.61 732.89 445.21 C 726.04 443.08 718.68 444.56 711.62 444.14 Z"></path><path fill="#ffffff" opacity="1.00" d=" M 823.00 434.63 C 826.46 434.62 829.91 434.62 833.37 434.63 C 833.38 442.71 833.38 450.78 833.37 458.86 C 842.62 458.88 851.87 458.87 861.12 458.87 C 861.12 450.79 861.12 442.71 861.13 434.63 C 864.58 434.62 868.03 434.62 871.49 434.62 C 871.56 454.09 871.40 473.55 871.57 493.01 C 868.09 493.21 864.61 493.10 861.13 493.12 C 861.11 484.92 861.13 476.71 861.12 468.50 C 851.87 468.49 842.63 468.51 833.39 468.50 C 833.36 476.70 833.39 484.91 833.37 493.12 C 829.91 493.13 826.46 493.13 823.00 493.12 C 823.00 473.62 823.00 454.12 823.00 434.63 Z"></path><path fill="#ffffff" opacity="1.00" d=" M 911.44 492.78 C 911.30 473.40 911.40 454.00 911.39 434.62 C 914.84 434.62 918.29 434.62 921.75 434.63 C 921.74 442.71 921.75 450.79 921.75 458.87 C 931.00 458.88 940.24 458.87 949.49 458.88 C 949.51 450.79 949.48 442.71 949.51 434.62 C 952.96 434.62 956.41 434.62 959.87 434.63 C 959.87 454.13 959.88 473.62 959.87 493.12 C 956.41 493.13 952.95 493.13 949.51 493.12 C 949.48 484.92 949.51 476.71 949.50 468.50 C 940.25 468.50 931.00 468.50 921.75 468.51 C 921.74 476.71 921.75 484.92 921.75 493.13 C 918.34 492.88 914.61 493.62 911.44 492.78 Z"></path><path fill="#ffffff" opacity="1.00" d=" M 1098.62 493.20 C 1098.35 473.68 1098.56 454.15 1098.51 434.62 C 1106.34 434.64 1114.17 434.60 1122.01 434.63 C 1128.13 434.70 1134.64 436.47 1138.93 441.09 C 1143.85 446.27 1144.82 454.25 1142.78 460.90 C 1141.03 466.54 1136.20 470.81 1130.70 472.69 C 1123.70 475.24 1116.15 474.14 1108.88 474.38 C 1108.87 480.63 1108.88 486.87 1108.87 493.12 C 1105.45 493.12 1102.03 493.08 1098.62 493.20 M 1108.88 444.13 C 1108.87 451.08 1108.87 458.04 1108.88 465.00 C 1115.48 464.52 1122.83 466.44 1128.82 462.81 C 1134.86 459.19 1134.68 448.96 1128.32 445.77 C 1122.25 442.90 1115.33 444.56 1108.88 444.13 Z"></path><path fill="#ffffff" opacity="1.00" d=" M 1154.75 434.63 C 1158.20 434.62 1161.66 434.62 1165.12 434.63 C 1165.13 454.13 1165.13 473.62 1165.12 493.12 C 1161.66 493.13 1158.20 493.13 1154.75 493.12 C 1154.74 473.62 1154.75 454.13 1154.75 434.63 Z"></path><path fill="#ffffff" opacity="1.00" d=" M 1176.38 434.63 C 1192.21 434.62 1208.04 434.63 1223.87 434.62 C 1223.87 437.83 1223.87 441.04 1223.87 444.25 C 1217.70 444.25 1211.54 444.24 1205.37 444.26 C 1205.38 460.54 1205.38 476.83 1205.37 493.12 C 1201.87 493.13 1198.37 493.13 1194.88 493.12 C 1194.86 476.83 1194.89 460.54 1194.87 444.25 C 1188.70 444.25 1182.54 444.25 1176.38 444.25 C 1176.37 441.04 1176.36 437.83 1176.38 434.63 Z"></path><path fill="#ffffff" opacity="1.00" d=" M 1292.88 434.63 C 1296.33 434.62 1299.78 434.62 1303.25 434.63 C 1303.26 450.96 1303.24 467.29 1303.25 483.63 C 1313.46 483.62 1323.66 483.62 1333.87 483.63 C 1333.87 486.79 1333.87 489.95 1333.87 493.12 C 1320.20 493.13 1306.54 493.13 1292.88 493.12 C 1292.87 473.62 1292.87 454.13 1292.88 434.63 Z"></path></g></svg> 