<?xml version="1.0" encoding="utf-8"?>
<!-- Generator: Adobe Illustrator 19.2.1, SVG Export Plug-In . SVG Version: 6.00 Build 0)  -->
<svg version="1.1" id="layer" xmlns="http://www.w3.org/2000/svg" xmlns:xlink="http://www.w3.org/1999/xlink" x="0px" y="0px"
	 viewBox="0 0 652 652" style="enable-background:new 0 0 652 652;" xml:space="preserve">
<style type="text/css">
	.st0{fill:#FFFFFF;}
	.st1{fill:#CAD9E3;}
	.st2{fill:#6DA4BA;}
</style>
<path class="st0" d="M467.7,233.7c-4.8,80.4-73.9,141.6-154.3,136.8c-80.4-4.8-141.7-73.9-136.8-154.3
	c4.8-80.4,73.9-141.6,154.3-136.8c79.4,4.8,140.2,72.3,137,151.4"/>
<path class="st1" d="M321.6,363.2l2.5-0.1l0.1,13.5l-2.5,0L321.6,363.2z M314.5,376.6l0.6-13.5l2.5,0.1l-0.5,13.5L314.5,376.6z
	 M328,363.1l2.5-0.1l0.8,13.5l-2.5,0.2L328,363.1z M307.5,376.1l1-13.5l2.6,0.2l-1.1,13.5L307.5,376.1z M334.5,362.6l2.5-0.3
	l1.3,13.5l-2.5,0.2L334.5,362.6z M300.4,375.3l1.8-13.4l2.5,0.3l-1.7,13.4L300.4,375.3z M340.9,361.9l2.5-0.4l2,13.4l-2.4,0.3
	L340.9,361.9z M293.4,374.2l2.4-13.3l2.6,0.4l-2.5,13.3L293.4,374.2z M347.3,360.8l2.5-0.5l2.7,13.3L350,374L347.3,360.8z
	 M286.5,372.7l2.9-13.2l2.5,0.6l-2.9,13.2L286.5,372.7z M353.6,359.5l2.5-0.6l3.3,13.1l-2.5,0.6L353.6,359.5z M279.6,371l3.5-13
	l2.5,0.6l-3.6,13L279.6,371z M360,357.8l2.4-0.7l3.8,13l-2.4,0.7L360,357.8z M272.8,368.8L277,356l2.4,0.8l-4.2,12.9L272.8,368.8z
	 M366.1,355.8l2.4-0.8l4.4,12.8l-2.4,0.8L366.1,355.8z M266.1,366.4l4.9-12.6l2.4,0.9l-4.9,12.6L266.1,366.4z M372.2,353.6l2.3-1
	l5.1,12.5l-2.4,1L372.2,353.6z M259.5,363.7l5.3-12.4l2.4,1l-5.3,12.4L259.5,363.7z M378.2,351.1l2.3-1.1l5.6,12.2l-2.3,1.1
	L378.2,351.1z M253.1,360.6l5.9-12.1l2.3,1.1l-5.9,12.2L253.1,360.6z M384,348.4l2.3-1.2l6.2,12l-2.2,1.2L384,348.4z M246.8,357.3
	l6.5-11.8l2.2,1.2l-6.5,11.9L246.8,357.3z M389.7,345.3l2.2-1.3l6.8,11.7l-2.2,1.3L389.7,345.3z M240.7,353.7l7.1-11.5l2.2,1.3
	l-7.1,11.6L240.7,353.7z M395.3,342l2.1-1.4l7.4,11.3l-2.1,1.4L395.3,342z M234.7,349.8l7.6-11.1l2.1,1.4l-7.6,11.1L234.7,349.8z
	 M400.7,338.3l2.1-1.5l7.8,11.1l-2.1,1.5L400.7,338.3z M229,345.6l8.2-10.8l2,1.5l-8.1,10.8L229,345.6z M406,334.5l2-1.6l8.3,10.7
	l-2,1.6L406,334.5z M223.4,341.2l8.5-10.5l2,1.6l-8.5,10.5L223.4,341.2z M411,330.4l1.9-1.6l8.7,10.2l-1.9,1.6L411,330.4z
	 M218.1,336.5l9-10l1.9,1.7l-9,10L218.1,336.5z M415.8,326.2l1.9-1.7l9.3,9.8l-1.9,1.7L415.8,326.2z M212.9,331.6l9.5-9.7l1.8,1.8
	l-9.5,9.6L212.9,331.6z M420.5,321.7l1.8-1.8l9.7,9.4l-1.8,1.8L420.5,321.7z M208.1,326.4l10-9.1l1.7,1.9l-9.9,9.1L208.1,326.4z
	 M424.9,316.9l1.7-1.9l10.1,8.9l-1.7,1.9L424.9,316.9z M203.4,321l10.4-8.7l1.6,1.9l-10.3,8.7L203.4,321z M429.1,312l1.6-2l10.6,8.4
	l-1.6,2L429.1,312z M199,315.4l10.8-8.1l1.5,2l-10.8,8.2L199,315.4z M433.1,306.9l1.5-2.1l11,7.8l-1.5,2.1L433.1,306.9z
	 M194.9,309.5l11.1-7.6l1.5,2.1l-11.2,7.6L194.9,309.5z M436.9,301.5l1.4-2.1l11.3,7.6l-1.4,2.1L436.9,301.5z M191,303.6l11.5-7.1
	l1.3,2.2l-11.5,7.1L191,303.6z M440.4,296.1l1.3-2.2l11.6,6.9L452,303L440.4,296.1z M187.5,297.5l11.8-6.7l1.2,2.2l-11.7,6.7
	L187.5,297.5z M443.6,290.5l1.2-2.3l11.9,6.4l-1.2,2.2L443.6,290.5z M184.2,291.2l12.1-6.1l1.1,2.2l-12.1,6.1L184.2,291.2z
	 M446.5,284.7l1.1-2.3l12.2,5.8l-1.1,2.3L446.5,284.7z M181.2,284.7l12.3-5.6l1.1,2.3l-12.4,5.5L181.2,284.7z M449.2,278.9l1-2.4
	l12.5,5.1l-0.9,2.4L449.2,278.9z M178.6,278.1l12.6-4.9l0.9,2.4l-12.6,4.9L178.6,278.1z M451.6,272.8l0.9-2.4l12.7,4.6l-0.8,2.4
	L451.6,272.8z M176.2,271.4l12.8-4.2l0.8,2.4l-12.8,4.3L176.2,271.4z M453.8,266.7l0.8-2.4l12.9,4.1l-0.8,2.4L453.8,266.7z
	 M174.2,264.5l13-3.6l0.7,2.4l-13,3.6L174.2,264.5z M455.6,260.5l0.6-2.5l13.1,3.4l-0.7,2.4L455.6,260.5z M172.5,257.6l13.1-3
	l0.6,2.4l-13.2,3L172.5,257.6z M457.1,254.2l0.5-2.5l13.2,2.7l-0.5,2.5L457.1,254.2z M171,250.7l13.3-2.5l0.5,2.5l-13.3,2.5
	L171,250.7z M458.4,247.9l0.4-2.5l13.4,2.1l-0.4,2.5L458.4,247.9z M170,243.7l13.3-1.9l0.4,2.5l-13.3,1.8L170,243.7z M459.3,241.4
	l0.3-2.6l13.4,1.6l-0.3,2.5L459.3,241.4z M169.2,236.5l13.5-1.1l0.2,2.5l-13.4,1.2L169.2,236.5z M460,234.9l0.2-2.5l13.5,0.9
	l-0.2,2.5L460,234.9z M168.8,229.5l13.5-0.6l0.1,2.5L169,232L168.8,229.5z M460.3,229.8l0.1-2.5l13.5,0.4l-0.1,2.6L460.3,229.8z
	 M168.8,224.9v-2.5l13.5,0l0,2.5L168.8,224.9z M460.4,220.8l13.5-0.2l0,2.5l-13.5,0.2V220.8z M168.9,217.8l0.1-2.6l13.5,0.7
	l-0.1,2.5L168.9,217.8z M460.1,214.4l13.5-0.9l0.2,2.5l-13.5,0.9L460.1,214.4z M169.3,210.7l0.3-2.5l13.4,1.2l-0.2,2.5L169.3,210.7z
	 M459.5,207.9l13.4-1.4l0.3,2.5l-13.5,1.4L459.5,207.9z M170.1,203.6l0.3-2.5l13.4,1.9l-0.3,2.5L170.1,203.6z M458.6,201.4l13.4-2
	l0.3,2.5l-13.4,2L458.6,201.4z M171.3,196.6l0.5-2.4l13.3,2.6l-0.5,2.5L171.3,196.6z M457.4,195.1l13.2-2.7l0.5,2.5l-13.2,2.7
	L457.4,195.1z M172.7,189.7l0.6-2.5l13.1,3.1l-0.6,2.4L172.7,189.7z M455.9,188.8l13.1-3.4l0.6,2.4l-13.1,3.4L455.9,188.8z
	 M174.4,182.8l0.7-2.5l13,3.7l-0.7,2.4L174.4,182.8z M454.1,182.6l12.9-3.9l0.8,2.4l-12.9,4L454.1,182.6z M176.6,176l0.8-2.4
	l12.8,4.4l-0.8,2.4L176.6,176z M452,176.4l12.8-4.4l0.8,2.4l-12.8,4.5L452,176.4z M179,169.2l0.9-2.4l12.6,5l-0.9,2.3L179,169.2z
	 M449.6,170.3l12.5-5l1,2.3l-12.5,5.1L449.6,170.3z M181.7,162.6l1-2.3L195,166l-1.1,2.3L181.7,162.6z M447,164.5l12.3-5.7l1.1,2.3
	l-12.2,5.7L447,164.5z M184.7,156.3l1.1-2.2l12.1,6.1l-1.1,2.2L184.7,156.3z M444,158.7l12-6.2l1.2,2.2l-12,6.3L444,158.7z M188,150
	l1.2-2.2l11.8,6.7l-1.3,2.2L188,150z M440.8,153l11.7-6.8l1.3,2.1l-11.6,6.8L440.8,153z M191.6,143.8l1.3-2.1l11.5,7.2L203,151
	L191.6,143.8z M437.4,147.6l11.3-7.4l1.4,2.1l-11.3,7.3L437.4,147.6z M195.5,137.9l1.5-2.1l11,7.8l-1.4,2.1L195.5,137.9z
	 M433.7,142.2l11-7.9l1.5,2.1l-11,7.9L433.7,142.2z M199.7,132.1l1.6-2l10.7,8.3l-1.6,2L199.7,132.1z M429.8,137.1l10.6-8.4l1.6,2
	l-10.6,8.4L429.8,137.1z M204.1,126.5l1.6-1.9l10.3,8.8l-1.6,1.9L204.1,126.5z M425.6,132.1l10.2-8.8l1.7,1.9l-10.2,8.9L425.6,132.1
	z M208.8,121.1l1.7-1.9l9.8,9.3l-1.7,1.9L208.8,121.1z M421.2,127.4l9.8-9.3l1.8,1.8l-9.8,9.3L421.2,127.4z M213.7,116.1l1.8-1.8
	l9.5,9.6l-1.8,1.8L213.7,116.1z M416.6,122.9l9.3-9.8l1.8,1.8l-9.3,9.8L416.6,122.9z M218.8,111.2l1.9-1.7l9,10l-1.9,1.7
	L218.8,111.2z M411.7,118.5l8.8-10.2l1.9,1.6l-8.8,10.3L411.7,118.5z M224.2,106.5l2-1.6l8.5,10.5l-2,1.6L224.2,106.5z M406.7,114.3
	l8.5-10.5l1.9,1.6l-8.4,10.5L406.7,114.3z M229.8,102.1l2.1-1.5l8,10.9l-2,1.5L229.8,102.1z M401.5,110.5l8-10.9l2,1.5l-8,10.9
	L401.5,110.5z M235.6,98l2.1-1.4l7.5,11.2l-2.2,1.4L235.6,98z M396.1,106.9l7.5-11.3l2.1,1.4l-7.4,11.3L396.1,106.9z M241.6,94.1
	l2.1-1.3l6.9,11.6l-2.1,1.3L241.6,94.1z M390.6,103.5l6.8-11.6l2.2,1.2l-6.9,11.6L390.6,103.5z M247.7,90.5l2.2-1.2l6.4,11.9
	l-2.2,1.2L247.7,90.5z M384.9,100.5l6.3-12l2.2,1.2l-6.3,12L384.9,100.5z M254.1,87.2l2.3-1.1l5.8,12.2l-2.3,1.1L254.1,87.2z
	 M379,97.6l5.8-12.2l2.3,1.1l-5.7,12.2L379,97.6z M260.4,84.2l2.3-1l5.4,12.4l-2.3,1L260.4,84.2z M373.1,95.1l5.1-12.5l2.3,1
	l-5.1,12.5L373.1,95.1z M267,81.6l2.4-0.9l4.7,12.7l-2.3,0.9L267,81.6z M367,92.8l4.5-12.7l2.4,0.8l-4.5,12.7L367,92.8z M273.8,79.2
	l2.4-0.8l4.1,12.9l-2.4,0.7L273.8,79.2z M360.9,90.8l3.9-13l2.4,0.7l-3.9,13L360.9,90.8z M280.6,77.1l2.4-0.6l3.5,13.1l-2.4,0.6
	L280.6,77.1z M354.6,89.1l3.4-13l2.4,0.6l-3.3,13.1L354.6,89.1z M287.5,75.4l2.5-0.6l2.8,13.2l-2.4,0.5L287.5,75.4z M348.3,87.7
	l2.7-13.2l2.5,0.5l-2.7,13.2L348.3,87.7z M294.4,74l2.5-0.4l2.3,13.3l-2.5,0.4L294.4,74z M341.9,86.7l2.1-13.3l2.5,0.3L344.4,87
	L341.9,86.7z M301.5,72.9l2.5-0.3l1.7,13.4l-2.5,0.3L301.5,72.9z M335.4,85.8l1.5-13.4l2.5,0.3l-1.5,13.5L335.4,85.8z M308.5,72.2
	l2.6-0.2l1,13.5l-2.5,0.2L308.5,72.2z M328.9,85.3l0.9-13.5l2.5,0.2l-0.9,13.5L328.9,85.3z M315.7,71.7l2.5-0.1l0.3,13.5l-2.5,0
	L315.7,71.7z M322.5,85.1l0.2-13.6l2.6,0l-0.2,13.6L322.5,85.1z"/>
<path class="st2" d="M517.3,565c1.7,1.9,6,6.6,15.1,6.6c10.1,0,16.6-6,16.6-14c0-6.3-5.4-10.7-8.9-12.2v-0.2
	c3.3-1.5,7.6-5.9,7.6-11.5c0-8.2-6.8-13.4-15.3-13.4c-8,0-13.6,6.4-13.6,6.4c-0.5,0.6-0.6,1.4,0,1.9l2.7,2.4
	c0.6,0.6,1.5,0.4,1.9-0.2c1.5-1.6,4.1-4.1,8.5-4.1c4.4,0,8.4,3.1,8.4,8c0,4.3-3.5,7.8-10.3,7.8h-4.1c-1,0-1.5,0.5-1.5,1.6v3.2
	c0,1,0.6,1.5,1.4,1.5h4.1c7.9,0,11.6,4.2,11.6,8.6c0,4.9-4.4,7.9-9.2,7.9c-5.5,0-9.5-3.9-10-4.5c-0.6-0.7-1.3-0.7-2-0.1l-2.9,2.7
	C516.9,563.7,516.9,564.5,517.3,565 M495.4,565c-8,0-10.7-8.4-10.1-14.5c0.4-1.3,4.2-5.6,10-5.6c5.5,0,9.8,4.5,9.8,10
	C505,560.4,500.8,565,495.4,565 M478.1,551c0,11.3,5.6,20.5,17.3,20.5c8.9,0,16.4-7.6,16.4-16.8c0-10.1-7.6-15.9-15.4-15.9
	c-4.9,0-9.2,2.4-9.7,2.7c2.4-9,14.1-15.1,17.5-16.2c1.4-0.4,1.7-1.2,1.3-2.1l-1.2-3c-0.3-0.8-1-1.1-1.9-0.9
	C495.6,521.9,478.1,530.5,478.1,551 M444.3,557.7c0-3.9,3.4-8,9.3-8.8c6,0.9,9.3,4.9,9.3,8.8c0,4.9-4.2,8-9.4,8
	C448.7,565.6,444.3,562.5,444.3,557.7 M453.6,541.8c-5.7-0.9-8.2-3.9-8.2-7.8c0-4.5,3.6-7.7,8-7.7c4.8,0,8.4,3.2,8.4,7.7
	C461.8,537.8,459.3,541,453.6,541.8 M436.6,557.5c0,8,6.5,14.1,16.8,14.1c10.7,0,17.1-6.1,17.1-14.1c0-6.3-5.5-10.7-8.9-12.3V545
	c3.2-1.6,7.5-5.7,7.5-11.3c0-8.1-6.7-13.4-15.7-13.4c-8.8,0-15.6,5.4-15.6,13.4c0,5.7,4.4,9.8,7.6,11.4v0.2
	C442.8,546.4,436.6,551.1,436.6,557.5 M401.5,570.8H427c0.8,0,1.4-0.6,1.4-1.3v-3.2c0-0.8-0.6-1.4-1.4-1.4h-8.1v-42.6
	c0-0.7-0.6-1.4-1.3-1.4H414l-10.9,9.8c-0.3,0.3-0.4,0.9-0.2,1.5l0.9,2.6c0.2,0.6,1,0.8,1.6,0.5l6.4-3.2V565h-10.2
	c-0.8,0-1.4,0.6-1.4,1.4v3.2C400,570.2,400.6,570.8,401.5,570.8 M334.6,545.2c0-10.4,8.6-19.2,19-19.2c10.5,0,19.1,8.8,19.1,19.2
	c0,10.5-8.6,19-19.1,19C343.2,564.2,334.6,555.7,334.6,545.2 M327.3,545.2c0,14.7,11.6,26.4,26.3,26.4c14.6,0,26.4-11.7,26.4-26.4
	c0-14.7-11.8-26.5-26.4-26.5C338.9,518.7,327.3,530.5,327.3,545.2 M274.1,569.4c0,0.8,0.7,1.4,1.4,1.4h4.6c0.8,0,1.4-0.6,1.4-1.4
	v-35.7h0.1l31.8,37.9h1.9c0.7,0,1.4-0.6,1.4-1.3v-49.4c0-0.7-0.7-1.4-1.4-1.4h-4.7c-0.8,0-1.4,0.6-1.4,1.4v34.7h-0.1l-31.8-36.8
	h-1.8c-0.7,0-1.4,0.6-1.4,1.3V569.4z M233.5,553.4l9-20.1h0.4l9,20.1H233.5z M219.9,570.8h4.7c0.9,0,1.5-0.6,1.7-1.1
	c1.5-3.4,3-6.7,4.5-10.1h24l4.5,10.1c0.2,0.7,0.8,1.1,1.7,1.1h4.6c1.1,0,1.7-0.9,1.2-1.9l-22.4-49.3c-0.2-0.5-0.8-0.8-1.2-0.8h-0.8
	c-0.3,0-1,0.3-1.2,0.8l-22.5,49.3C218.2,569.9,218.8,570.8,219.9,570.8 M185.3,569.4c0,0.8,0.6,1.4,1.4,1.4h26.1
	c0.8,0,1.4-0.6,1.4-1.4v-4.1c0-0.7-0.6-1.4-1.4-1.4h-19.9v-43.2c0-0.7-0.7-1.4-1.4-1.4h-4.8c-0.8,0-1.4,0.6-1.4,1.4V569.4z
	 M163.4,569.4c0,0.8,0.7,1.4,1.4,1.4h4.8c0.7,0,1.4-0.6,1.4-1.4v-48.6c0-0.7-0.7-1.4-1.4-1.4h-4.8c-0.7,0-1.4,0.6-1.4,1.4V569.4z
	 M96.2,569.2c-0.2,1.1,0.4,1.7,1.4,1.7h4.7c0.6,0,1.2-0.5,1.3-1l5.3-32.8h0.3l13.3,33.8c0.1,0.4,0.7,0.8,1.2,0.8h1.3
	c0.7,0,1.1-0.4,1.2-0.8l13.2-33.8h0.2l5.4,32.8c0.2,0.5,0.8,1,1.4,1h4.7c1.1,0,1.6-0.6,1.4-1.7l-9-49.3c-0.1-0.6-0.7-1.1-1.3-1.1
	h-1.2c-0.5,0-1.1,0.3-1.3,0.8L124.6,557h-0.3L109,519.6c-0.2-0.5-0.8-0.8-1.3-0.8h-1.1c-0.6,0-1.2,0.5-1.4,1.1L96.2,569.2z"/>
<path class="st2" d="M600,448.1c0-13.2,10.8-24.2,24-24.2c13.2,0,24.1,11,24.1,24.2c0,13.2-10.9,24-24.1,24
	C610.8,472.1,600,461.3,600,448.1 M586.4,448.1c0,20.9,16.7,37.6,37.6,37.6c20.9,0,37.8-16.7,37.8-37.6c0-21-16.8-37.9-37.8-37.9
	C603,410.2,586.4,427.1,586.4,448.1 M513.3,448.1c0,20.9,16.9,37.6,37.8,37.6c9.4,0,18.4-3.3,25.5-10.2c0.8-0.7,1-2.1,0.1-2.8
	l-6.5-6.7c-0.6-0.6-1.7-0.8-2.6,0c-4.4,3.5-9.8,5.9-16.1,5.9c-13.4,0-23.5-11.1-23.5-24.2c0-13.2,10-24.4,23.4-24.4
	c5.9,0,11.7,2.3,16.1,6.2c0.8,0.8,1.9,0.8,2.6,0l6.4-6.6c0.8-0.8,0.8-2.1-0.1-2.9c-7.1-6.4-14.7-9.8-25.4-9.8
	C530.2,410.2,513.3,427.1,513.3,448.1 M485.8,482.7c0,1.1,1,1.9,2,1.9h9.8c1,0,2-0.9,2-1.9v-69.4c0-1.1-0.9-2-2-2h-9.8
	c-1.1,0-2,1-2,2V482.7z M405.9,482.7c0,1.1,0.9,1.9,2,1.9h9.6c1.1,0,2-0.9,2-1.9v-45.1h0.1l43.8,48.1h2.5c1,0,1.9-0.8,1.9-1.9v-70.5
	c0-1.1-0.9-2-1.9-2h-9.7c-1.2,0-2,1-2,2v43.3h-0.1l-43.6-46.3h-2.6c-1.1,0-2,0.8-2,1.9V482.7z M328.6,448.1
	c0,20.9,16.9,37.6,37.9,37.6c9.3,0,18.3-3.3,25.5-10.2c0.8-0.7,0.9-2.1,0.1-2.8l-6.5-6.7c-0.6-0.6-1.8-0.8-2.6,0
	c-4.4,3.5-9.8,5.9-16.1,5.9c-13.4,0-23.5-11.1-23.5-24.2c0-13.2,10-24.4,23.4-24.4c5.9,0,11.7,2.3,16.1,6.2c0.8,0.8,1.9,0.8,2.6,0
	l6.4-6.6c0.8-0.8,0.8-2.1-0.1-2.9c-7.1-6.4-14.8-9.8-25.4-9.8C345.5,410.2,328.6,427.1,328.6,448.1 M271.3,482.7
	c0,1.1,0.8,1.9,1.9,1.9H316c1.2,0,2-0.9,2-1.9v-8.6c0-1.1-0.8-2-2-2h-31v-18.4h25.9c1.1,0,2-0.8,2-2V443c0-1.1-1-2-2-2h-25.9v-17.2
	h31c1.2,0,2-0.9,2-2v-8.5c0-1.1-0.8-2-2-2h-42.7c-1.1,0-1.9,1-1.9,2V482.7z M227.6,482.7c0,1.1,1,1.9,2,1.9h9.7c1,0,2-0.9,2-1.9
	v-58.8h16.1c1.2,0,2-0.9,2-2v-8.5c0-1.1-0.8-2-2-2h-45.8c-1.1,0-2,1-2,2v8.5c0,1.1,0.9,2,2,2h16.1V482.7z M182.6,482.7
	c0,1.1,0.9,1.9,2,1.9h9.8c1,0,2-0.9,2-1.9v-69.4c0-1.1-0.9-2-2-2h-9.8c-1.1,0-2,1-2,2V482.7z M126.6,482.7c0,1.1,0.8,1.9,2,1.9h38.4
	c1.1,0,2-0.9,2-1.9v-8.6c0-1.1-0.9-2-2-2h-26.7v-58.8c0-1.1-0.9-2-2-2h-9.6c-1.1,0-2,1-2,2V482.7z M53.9,448.1
	c0-13.2,10.8-24.2,24-24.2c13.2,0,24.1,11,24.1,24.2c0,13.2-10.9,24-24.1,24C64.6,472.1,53.9,461.3,53.9,448.1 M40.2,448.1
	c0,20.9,16.7,37.6,37.7,37.6c20.9,0,37.7-16.7,37.7-37.6c0-21-16.8-37.9-37.7-37.9C56.9,410.2,40.2,427.1,40.2,448.1 M-4.2,445.2
	v-21.1H7.9c5.9,0,10.8,4.4,10.8,10.2c0,6.2-4.9,10.9-10.8,10.9H-4.2z M-17.8,482.7c0,1.1,0.8,1.9,2,1.9h9.7c1.1,0,2-0.9,2-1.9V458
	H8.9c12.8,0,23.3-10.6,23.3-23.6c0-12.7-10.5-23.2-23.4-23.2h-24.7c-1.1,0-2,1-2,2V482.7z"/>
<polygon class="st2" points="394.3,285.1 394.3,285.1 394.2,285.1 "/>
<path class="st2" d="M361.8,203l-6,1.3c-0.4,0.1-0.6,0.4-0.5,0.8c0.1,0.4,0.4,0.6,0.8,0.5l2.1-0.4l0.5,0.6c0.1,0.1,0.4,0.2,0.5,0.2
	c0.2,0,0.4-0.1,0.5-0.2c0.3-0.3,0.3-0.7,0.1-1l0,0l2.3-0.5c0.4-0.1,0.6-0.4,0.6-0.8C362.6,203.2,362.3,202.9,361.8,203"/>
<path class="st2" d="M437.8,291.2c-2.3-0.3-5.4-8-5.2-15.3c0-1.9,0.2-3.9,0.6-5.6c1.7-7.1,6.6-24.2,6.6-44.5c0-4.4-0.2-8.9-0.7-13.5
	c-1.6-13.5-3.4-23.4-6.3-30.6v0c1.4-2,2.7-4.4,2.7-6.6c0-4.4-3.7-11.3-11.2-11.3c-0.7,0-1.4,0.1-2.1,0.2l-4.7,1.4
	c-3.9-2.9-7.6-3.2-10.1-3.2c-0.6,0-1.1,0-1.5,0c-0.8,0-1.3-0.1-1.5-0.2c-0.1,0-1.6-0.7-3.7-0.7c-0.5,0-1,0.1-1.6,0.2l-0.1,0
	c-2.2-0.4-4.3-0.5-6.4-0.5c-2.2,0-4.2,0.1-6.3,0.4c-0.3-0.5-1.6-2.5-4.5-4.7v-0.9c-0.1-2.4-2.4-6.2-2.4-6.2
	c-5.9-9.9-15-13.5-16.1-14c0.3-1.2,0.6-3.4,0.6-4.5c0-0.2,0-0.3,0-0.5l-0.3,0h0.3c0-0.3,0.5-1.4,0.7-2.6c0,0,0-0.1,0-0.3
	c-0.1-1.7-1.9-5-2.9-7.2c-1.2-2.4-4-2.7-4.9-2.8c-2.6-2.5-6.4-2.8-8.3-2.8c-0.7,0-1.2,0-1.2,0c-0.2,0.1-4.9,1.1-6,2
	c-0.5,0.4-1.8,1.7-3,3c-1.4-0.8-2.9-1.2-4.2-1.2c-3.3,0-5.7,1.8-6.1,2c0-0.1-2.5,0.2-4,0.5c-1.8,0.2-3.3,1-6.9,5.4
	c-1.8,2.1-2.3,4.2-2.3,5.9c0,1.6,0.5,2.8,0.7,3.2c-1.6,0.5-3,1.6-3.8,2.3c-1.3,1.3-1.4,4.4-1.4,5.5c-0.2,0-0.4,0-0.5,0
	c-3,0.2-5.6,1.8-5.6,1.9c0,0.2-2.1,0.4-2.6,2c0,0.2,0.1,0.4,0.1,0.4c0.2,0.6,1.3,1.8,3.3,1.8h0.1c1.5,0.1,2.2-0.4,2.4-0.8
	c0.1,0,0.1,0,0.1-0.1c0.6,0.8,4.7,4.6,4.8,4.6c0.1,0.1,1.6,1.1,3.7,1.1c0.9,0,2-0.2,3-0.9c1.6-1.3,3.7-0.9,4.5-2.7
	c0.7-0.1,2.4-0.5,3.5-1.1c0.4-0.2,1-0.6,1.4-1.2l0,0c0.1-0.2,2-2.2,2.4-2v0.1c1.5,3.7,1.9,6.9,1.9,9.5c0,5.2-1.9,8-1.9,8
	c-0.3,0.4-1.4,3.1-2.2,4.9c-0.4-0.9-1.1-1.4-1.5-1.6c-0.2-0.8-0.8-1.4-1.2-1.7v-0.1c-0.2-2.5-2.7-2.7-2.3-2.8
	c-0.6-1.6-2.7-2.4-2.7-2.4c-0.9-1.5-3.5-1.7-3.5-1.8c0,0-0.1,0-0.3,0c-1.2,0-3.6,1-4.3,1.2c-0.2,0-0.6,0-1,0c-0.6,0-1.3,0-2.1,0.4
	c-0.2,0-0.5,0-0.8,0c-1.3,0-3.7,0.5-5.1,3.3c0,0-1.7,1.2-2.7,2.8c0,0.1-2.7,8-3.1,11c-0.4,3.1-0.2,2.2-0.4,3
	c-0.1,0.7-4.1,4.2-4.1,7.1c0,0.5,0.1,1,0.3,1.4c-2.3,1.7-9.5,8-9.5,21.3c0,1.3,0.1,2.7,0.2,4.2c-3-1.2-6.2-2.1-7-2.3
	c-0.5-0.7-1.3-0.9-1.7-1.1c-0.6-0.2-3.1-1.3-3.4-1.8c-0.9-1-2.6-1.4-3.7-1.5l0,0c-0.8-0.6-2.7-4.4-3.5-7.5c-1.1-3.4-1.9-7.6-1.9-12
	v-0.4l-0.4-0.2h0.4c0-4.9-3.2-11-4.1-13.2c-0.1-0.1-0.1-0.3-0.2-0.4l4.4-2.2c0,0.4-0.1,0.9-0.1,1.3c0,0.7,0.1,1.5,0.5,2.2
	c0,0,2.4,6.5,9.6,7.1c0.7,0,6.9,0.3,6.9,0.3c0.1,0,0.2,0,0.2,0c1.5,0.8,3.3,1.8,5.4,1.8c1.2,0,2.4-0.3,3.5-1.1c0,0,1.9-1,1.9-3.7
	c0-0.2,0-0.6-0.1-0.9c0.6-0.4,1.4-1.2,1.5-2.6c0-0.4-0.1-0.8-0.4-1.3l-0.5-0.9l2.4-0.4c0.1-0.2,1.9-0.4,2.2-2.1c0,0,0-0.2-0.1-0.4
	l-0.5-0.5c0,0-3.2-0.6-3.8-0.6c-0.3,0-4-0.6-4-0.6l-1.5,0.2l-1.6-0.4v0c-0.6-1.8-3.7-4-4.7-4.8c0.5-0.2,0.9-0.6,1.2-1
	c0.2-1,0.2-2.7,0.2-3.5c0-0.3,0-0.4,0-0.4s0-0.2-0.1-0.3c1.3-1.9,1.5-4.1,1.5-5.4l3.2,1.7c0.1,0,2.4,1.4,4,1.4h0.1
	c1.5-0.1,1.9-1.4,1.8-1.8c0,0,0.5-0.6,0.5-0.6c0.7-0.3,1-0.7,1.2-1.1c0.4,0,1.2-0.1,1.8-0.4c0.3-0.2,0.6-0.5,0.8-0.8
	c0.3,0.2,0.6,0.4,1.1,0.4c0.8,0,1.5-0.8,1.6-1.7c0.5-2.3,2.6-7.3,3-8.5c0.2-0.6,0.4-0.9,0.6-1.1c0.5,0.2,1,0.3,1.6,0.3h0.4
	c2.3-0.2,2.8-1.9,2.8-2.4c0-0.1,0.5-1.7,0.5-3.3c0-1.7-0.6-3.9-2.8-4.8c-0.5-1-2.4-4.3-6-4.4c-0.2,0-0.5,0-0.7,0
	c-1-0.7-4.9-3.2-9.2-3.2c-0.5,0-1.1,0-1.6,0.1c0.1,0-2.3-0.5-4.9-0.5c-2.8,0-6.4,0.4-7.1,3.3c-1.6,0.3-6.6,1.1-7.2,3.9
	c-0.3,0-0.7,0.1-0.9,0.3c-0.8,0.4-2.3,1.6-2.4,3.4c-2.7-1.2-5.3-1.4-6.6-1.4c-0.1,0-0.2,0-0.3,0c-0.3,0-0.4,0-0.5,0
	c0,0-3.7-0.4-7.7-0.4c-2.1,0-4.3,0.1-6,0.5c-4.7,1.1-10.6,2.2-13.2,3.7c-2.6,1.6-4.9,6.2-6.6,7.1c-1.9,1.1-5.2,2.4-6.2,6.3
	c-0.1,0.4-0.2,1-0.3,1.6c-0.8,0.2-6,2-10.9,10.9c0,0-3.3,4-4.4,4.9c-0.7,0.6-0.8,1.5-0.8,2.5c0,1.8,0.6,3.8,1.5,4.8
	c0.3,0.2,1,1.1,2,2c-0.4,0.6-0.9,1.6-0.9,3c0,1.5,0.4,3.4,1.9,5.8c-1.5,1.1-4.9,4.5-6.1,14.4c0,0-0.6,12.3-2.2,17
	c-2.9,6.1-9.4,12.8-9.4,12.8c-0.1,0.1-0.9,1-0.9,2.4c0,0.8,0.3,1.8,1.3,2.7l4.8,3.4c0.1,0.1,0.2,0.1,0.4,0.1c0,0.2,0.1,0.4,0.1,0.5
	c0.7,1.2,2.2,1.3,4.1,2c1.7,0.5,3.2,0.8,3.9,0.9c0.3,0.3,0.7,0.4,1.2,0.4c2.9,0.1,4.2,0,5.2,1.2c0.6,0.6,1.2,1.3,2,1.7
	c0.2,0.1,1,0.3,2.2,0.4c-2,1.2-4,3-4.4,5.3c-0.1,1.2-0.6,3.3-0.6,5.4c0,3.1,1.2,6.5,6,6.5h0.1l0.5-0.1c0,0,2.6-1.4,4.2-2.8
	c0.2,1.2,0.7,4.4,2.2,6.3c0.1,0.1,0.1,0.2,0.2,0.2c-0.1,0.4-0.3,1.7-0.3,3.4c0,2.7,0.6,6.6,3.5,9.6c-0.4,0.4-1.2,1.4-1.3,2.8
	c-0.1,1.5-0.1,4.2-1.2,6.6c-1.2,2.5-3.4,7.9-3.5,9.9c0,0,0,0.2,0.1,0.4c0.1,0.8,1,2.4,1.7,4c0.4,0.8,0.9,1.6,1.2,2.1
	c0.2,0.3,0.3,0.5,0.4,0.7c0,0.1,0.1,0.1,0.1,0.2c0.4,0.9,0.9,1.3,1.5,1.7c0.4,0.1,1.4,0.3,1.9,0.3v-0.1l0.2-0.2v0.3h0.1h0
	c0.2,0,0.8,0.1,1.1,0.1c0.1,0,0.3,0,0.4-0.1c0.4-0.2,1.5,0,1.9-1.4c0-0.2,0-0.5,0-0.7h0c0.7-0.6,1.6-1.5,1.8-2.7
	c0.1-0.3-0.2-0.8-0.7-0.9c-0.4-0.2-1.5-0.5-2-0.7c-0.8-0.3-1.1-0.3-1.1-0.5c-0.3-0.5-0.4-0.8-0.4-1l0-0.2c0.2-0.4,0.9-1.1,1.4-1.4
	c0.3-0.3,6.3-4.3,7.2-4.4h0.1v0c1.2,0.3,3.3,0.8,3.9,1.5c1.1,1,9.4,8,11.5,9c1.7,0.8,9.1,5.3,13.1,5.8c3.6,0.4,10.1,1.8,12.8,2.5
	c1.4,0.4,3.7,0.8,5.9,0.8c2.2,0,4.6-0.4,6.2-2.2c2.4-2.9,3.8-3.1,4.1-5.5c0.1-1,0.4-3.2,0.4-5.4c0-1.7-0.2-3.5-1-4.8
	c-1.6-2.7-3.1-4.5-3.1-4.5c-0.1-0.1-0.1-0.2-0.2-0.2c0,0,0-0.1,0-0.1c0.1-0.6,0.2-1.2,0.2-1.7c0-2.9-1.6-4.9-1.7-5.4
	c-0.1-0.4-0.9-2.7-1.8-5.6c-0.5-1.6-1.1-3.3-1.6-5c0.4-0.4,2.1-1.8,3.8-3.6c0.6,0.6,11.5,12.3,16.1,13.3c0.1,0,0.2,0.1,0.4,0.1
	c0,0,4.9-0.1,9.5-1.7c3.6-1.2,6-3.4,8.4-3.3c0.7,0,1.5,0.1,2.4,0.6c0,0.1,0.1,0.2,0.1,0.3c0.2,0.5,0.6,0.9,1.1,1.4l0.6,9.1
	c0,0.1,0,0.1,0,0.1c0,0.5,0,2.2,1.4,2.7l-1.3,9.1l-22.5,5.3c-0.2,0-0.3,0.1-0.4,0.2c0,0-0.1,0-0.1,0.1c-0.1,0.2-0.2,0.3-0.1,0.6v5.6
	l0.5,0.7l22.2,7.5h0.4l40.6-11.9c0.3-0.1,0.5-0.4,0.5-0.7v-5.8c0-0.3-0.2-0.6-0.6-0.7l-23.3-4.8l-3.6,0.8l-2.6-16.9
	c0,0,0.1-0.1,0.1-0.1c1-1.3,2.1-3.4,2.1-6.1c0-0.7-0.1-1.6-0.3-2.4c-0.8-3.3-1.1-5.1-1.1-6.4c0-1,0.2-1.6,0.4-2.3
	c0.1-0.7,7.7-9.9,12.8-19.1c0,3.2-0.1,8.5-0.1,10.9c0,0.6,0,1,0,1.3c0,0.4,0.1,1.2,0.1,2.1c0,1.7-0.2,4-0.9,4.8
	c-1.3,1.9-2.7,4.8-2.7,6.6c0,0,0,0.2,0.1,0.5c0,0.4,0.1,1.2,0.1,1.9c0,0.9-0.1,1.7-0.2,2c-0.2,0.7-1.6,4.9-1.6,4.9
	c0,0.1-0.1,0.4-0.1,0.8c-0.1,1.1,0.4,3.7,3.3,4c1.4,0.2,3.1,0.3,4.6,0.3c2.1,0,4-0.2,5.2-0.7c1.6-0.9,3-2.3,3.1-3.9
	c0-0.2,0-0.5-0.2-0.8c-0.7-1.4-2-2.2-2.7-3.2c-0.7-0.8-1.5-2.5-1.5-3.5l0-0.3c0-0.1,0.5-1.7,0.6-2.7v-0.1v0h0l0-0.1
	c0-0.2-0.1-0.8-0.1-1.4c0-1.2,0.2-2.8,0.5-3.1c0.8-1.1,6.3-9.5,6.3-9.5c0.1-0.1,2.8-4.2,3.7-15.8v-0.1c3-0.2,5.2-0.3,6.2-0.3
	l-0.2,0.6l-2.7,5.8c0,0-4.6,8.8-5.4,11c-0.5,1.3-2.4,5-2.4,10.4c0,2.6,0.5,5.7,1.7,8.9l1.5,5.5c2.5,8.1,3.8,9.4,7.1,9.8h0.2
	c-0.3,1.1-0.6,2.1-0.8,2.5c-0.3,0.7-1,1.9-1.3,3.3c-0.2,0.6-0.3,1.3-0.3,2c0,0.2,0,0.4,0.1,0.6c0.2,1.9,0.2,4.2,2.4,4.6
	c0.3,0.1,0.6,0.1,0.9,0.1c1.2,0,2.5-0.2,3-0.3c0.6,0.2,2.2,0.8,3.3,0.8c0.5,0.1,1.1,0.1,1.7,0.1c0.6,0,1.3-0.1,1.9-0.4
	c0.7-0.5,2.3-1,3.1-1.7c0.7-0.6,2.8-2.1,2.9-4c0,0,0-0.1,0-0.1c-0.2-2-3.4-6.2-3.4-6.4c0,0.1,0,0,0-0.2c3,0.6,11.8,0.9,21,1.4
	c3,0.2,3.3,0.1,6,0.2c0.4,0,0.9,0.1,1.5,0.1c6.9,0,19.6-1.4,19.7-1.4c0.3,0,0.6-0.3,0.7-0.6C438.4,291.6,438.1,291.3,437.8,291.2
	 M404.3,163.7c0.1,0,0.1-0.1,0.1-0.1c0.4,0,0.9,0,1.4,0h1.5c2.5,0,5.9,0.3,9.6,3.1l0.7,0.1l4.9-1.5c0.6-0.1,1.2-0.1,1.8-0.1
	c6.5,0,9.8,6.1,9.8,9.9c0.1,3.9-5.9,9.7-5.9,9.7l-6.2,5.1c-1.5,2.8-7.3,6-9.7,7.5c-14.1-3.9-18-9.7-18-15.4
	C394.2,173.9,402.4,165.6,404.3,163.7 M400.7,162.8c0.9,0,1.7,0.2,2.2,0.3c-2.6,2.6-10,10.4-10.1,18.7c0,6.3,4.4,12.5,17.7,16.4
	c-1.6,0.8-3.2,1.2-4.8,1.2c-0.9,0-1.7-0.1-2.7-0.3c-9.3-1.9-18.3-13.6-18.4-13.6c-0.1-1.3-0.3-2.5-0.7-3.5c0.1-0.1,0.2-0.3,0.2-0.5
	c0-0.1,4.7-14.6,13-17.9C398.5,163,399.6,162.8,400.7,162.8 M392.6,162.4c1.2,0,2.4,0.1,3.7,0.2c-7.8,3.6-12,14.3-13.1,17.8
	c-2-2.9-5.2-3.6-7.2-3.5c-1.1,0-1.8,0.1-1.9,0.1c0,0-0.1,0-0.1,0c-0.7-0.1-1.5-0.1-1.8-0.2c-0.3,0-3.7-1.4-4.9-1.5
	c-0.1,0-1-0.3-1.9-0.6c-1.2-0.5-2.6-1.1-2.8-1.3c-0.5-0.3-0.9-0.3-1.4-0.3h-0.6c0.8-0.9,2.7-2.7,5.1-3.8
	C366.6,169.1,379.3,162.4,392.6,162.4 M374.2,196.1c-0.4-0.1-0.7,0.2-0.8,0.6h0c0,0-0.6,3.7-1.5,6.5c-0.4,0.9-0.6,1.5-0.6,1.5
	c-0.4,0.7-0.9,1.5-1.3,2.1c-2.7,3.7-4.9,4.4-6.2,4.4c-0.6,0-1.1-0.1-1.3-0.2l0.8-0.5c0.3-0.2,0.4-0.6,0.2-1c-0.2-0.4-0.7-0.5-1-0.3
	l-1.4,0.9c-0.1,0.1-0.1,0.1-0.2,0.2c-0.7-0.3-1.5-0.6-1.5-0.6l-0.8,0.1l-1.4,1.4c-0.1,0-0.1,0-0.2,0c-1,0.2-2.3-2.9-2.7-4
	c-0.7-1.3-1.9-1.8-2.6-1.9c-0.2,0-1.6-0.3-1.7-0.3c0-0.1-3.5-2.8-3.8-3.2c-1.6-1.9-2-4.7-2-4.7c-0.2-1.3-0.3-2.6-0.3-3.6
	c0-0.4,0-0.6,0-1c0.3-6.2,3.1-8.9,3.1-8.9l2.5-2.2c0,0,1.9-1.7,2.2-2c0.2-0.2,2.6-1.1,3.7-1.7c0.2-0.2,1.2-0.4,2.2-0.3
	c0.5,0,0.9,0,1.3,0h0.2c0,0,0.1,0,0.2,0c0.8,0,4.3,0.8,4.4,0.9c0.3,0.1,3.3,1.9,3.3,1.9s0.2,0.5,0.2,1c0,0.3,0,0.6-0.1,0.9
	c-0.4,1-2.7,5.2-3.6,6.2c-0.5,0.4-0.7,1-0.7,1.5c0,1.2,1,1.9,1.1,2.1c0,0,0.1,0.1,0.1,0.4c0,0.2-0.1,0.4-0.1,0.6
	c0,0.2-0.9,0.8-1.3,1.8c-0.2,0.5-0.2,1-0.2,1.6c0,0.8,0.1,1.8,0.4,2.6c0.3,0.6,0.9,0.8,1.3,0.8c1.1,0,2.7-0.9,3-1
	c0.2,0,0.2,0,0.4-0.1c1-0.2,2.7-0.5,3.4-1.8v0c0.4-0.2,1.3,0,2.2-0.6c0.8-0.7,1.8-2.4,2.1-2.7c0.5-0.6,1-1.6,1.2-1.7
	c0.4-0.4,0.7-1,0.7-1.6c0-0.3-0.1-0.5-0.2-0.8c0.1-0.1,0.2-0.2,0.4-0.3c0.5-0.5,0.6-1,0.6-1.5c0-0.5-0.1-0.9-0.2-1.4
	c-0.3-0.8-1.7-2.7-1.7-3c0-0.1,0.4-1,0.7-1.6l-0.4-0.3h0.4v0h0c-0.3-1.2-1.2-1.4-1.7-1.7c0.1-0.2,0.2-0.6,0.3-1
	c0.1-0.3,0.1-0.3,0.1-0.3s0-0.1,0-0.1h0.6c2.6,0.1,7,0.7,7.4,7.7c0,0.6,0,1.1,0,1.5v0.7c0,0-1.9,6.3-6.2,7.8
	c-0.6,0.2-2.1,1.1-2.3,1.3c-0.1,0.1-0.1,0.2-0.2,0.2c0-0.3,0.1-0.6,0.1-0.6C374.9,196.5,374.6,196.2,374.2,196.1 M367,211.8
	c-1.4,2.1-2.8,4.2-3.6,5c-0.7,0.9-2.3,1.6-3.6,2.2c-1.1,0.4-2.1,0.7-2.1,0.7l-13.9,1.6l-0.9,0.2c-0.4-1.5-1.6-5.4-2.1-7.9
	c0-0.2-0.1-0.4-0.1-0.7c-0.1-2.6,3.1-6.8,3.5-7c0.8-0.6,1.3-1.7,1.5-2.4c1.3,1.1,3.7,3,3.7,3c0.4,0.1,1.8,0.5,2.3,0.5
	c0,0,1,0.3,1.3,1.1c0.5,0.7,1.2,4.6,4,4.8c0.2,0,0.4-0.1,0.6-0.1l0.4-0.2l1.3-1.2c0.7,0.2,2,0.9,2.3,1c0.2,0.1,1,0.5,2.1,0.5
	C364.7,212.6,365.8,212.4,367,211.8 M342.3,188l0-0.2c0-0.3-0.1-0.5-0.1-0.7c0-0.2,0-0.2,0-0.2c1.3-1,1.1-2.7,1.9-3.8
	c0.3-0.6,0.7-0.9,1.4-1.1c3.3-0.9,2.5-3.8,3.7-3.7c1.9-0.6,3.9-2,4.3-2.1h0v0.1v-0.1l0.1,0.1c1.1-0.1,3.6-1.1,4.1-1.2
	c0.3-0.1,1.2-0.2,2-0.3c0.6-0.1,1.1-0.1,1.5-0.1c0.2,0,0.3,0,0.4,0h0.2c0.5,0.3,1.8,0.9,3.1,1.4c0.9,0.4,1.7,0.6,2.3,0.7
	c0.6,0,4,1.4,4.9,1.6c0.3,0,0.9,0,1.4,0.2c0.1,0,0.3,0.1,0.4,0.1v0c-0.1,0.2-0.4,0.6-0.4,1.3c-0.1,0.3,0.2,0.8,0.5,0.9
	c0.2,0.1,0.6,0.2,0.9,0.5c0.2,0.1,0.3,0.2,0.4,0.3v0c0,0-0.6,0.7-0.7,1.6c0,0,0,0.2,0.1,0.4c0.2,0.8,1.5,2.6,1.7,3.1
	c0.1,0.2,0.2,0.6,0.2,0.9c0,0.3-0.1,0.4-0.1,0.4c-0.3,0.3-0.8,0.4-1,1.4c0,0.2,0.2,0.5,0.3,0.7c0,0,0,0.1,0,0.1s-0.2,0.5-0.2,0.6
	c-0.5,0.5-1,1.4-1.3,1.8c-0.4,0.5-1.6,2.3-1.9,2.5c0,0.3-1.8-0.2-2.6,1.3c0,0,0,0-0.2,0.1c-0.4,0.3-1.6,0.7-1.9,0.7h-0.1h-0.1
	c0,0-0.1,0-0.1,0c-0.9,0.2-2.3,1-2.9,0.9v0.1c-0.2-0.5-0.3-1.3-0.3-2c0-0.5,0.1-1.1,0.1-1.2c0.1-0.4,0.9-0.9,1.3-1.8
	c0.1-0.3,0.2-0.7,0.2-1.1c0-0.5-0.1-0.9-0.4-1.3c-0.3-0.3-0.8-0.9-0.7-1.2c0-0.2,0-0.2,0.2-0.5c1.4-1.4,3.5-5.5,4-6.8
	c0.2-0.4,0.2-0.9,0.2-1.3c0-0.9-0.2-1.5-0.6-2c-0.6-0.6-3.2-1.9-3.9-2.3c-0.7-0.3-3.9-0.9-5.1-1h-0.1h-0.1H359c-0.3,0-0.8,0-1.3,0
	c-1,0-2.1,0-2.9,0.6c-0.8,0.5-3,1.3-3.7,1.7c-0.6,0.4-2.4,2.1-2.4,2.1l-2.5,2.2c-0.1,0.1-3,2.9-3.5,8.8c-0.1-0.1-0.2-0.4-0.2-0.6
	l0-0.1c0.1-0.4,0.1-0.7,0.1-0.7C342.6,189.2,342.4,188.5,342.3,188 M378.2,150.2c0,0,2.2,3.9,2.2,5.5c-1.6-1.1-3.3-2-5.3-2.8
	c-0.4-0.1-0.8,0-1,0.4c-0.1,0.4,0,0.8,0.4,1c2.2,0.9,4.3,2.1,5.9,3.3c2.4,1.7,3.7,3.3,4.3,4.1c-9.3,1.5-17,5.2-19.1,6.2
	c-6.5-4.7-7.2-9.2-7.2-11.3c0-0.6,0.1-0.9,0.1-0.9c0.3-0.4,0.6-0.7,0.9-1.1c0.6-0.8,0.7-1.9,0.7-2.8c0-1.1-0.2-2.2-0.2-2.5h0
	c0-0.1,0.3-1,0.9-1.5c1.2-1.2,0.9-3.5,1.1-4.1c-0.1,0,0.5-0.5,1.2-1.1c0.2-0.4,0.3-0.7,0.3-1.2c0-1.2-0.5-3-0.6-3.5
	c0-0.1,0-0.1,0-0.1c0-0.4,0.1-0.6,0.2-1C364.2,137.4,372.7,141,378.2,150.2 M338.9,121.4c0.1,0,0.2-0.2,0.3-0.2l0-0.1
	c1.2-1.3,2.6-2.7,3-3.1c0.3-0.3,5.2-1.6,5.4-1.6c0.1,0,0.4-0.1,0.9-0.1c1.8,0,5.4,0.3,7.4,2.5l0.4,0.2c0.1,0,3.4,0.3,4,2
	c1,2.2,2.8,5.8,2.8,6.6c0,0,0,0,0,0.2c-0.1,0.7-0.7,1.6-0.8,2.7c0,0,0,0.1,0,0.3c0,0,0,0.1,0,0.1c0,1-0.3,3.8-0.5,4.4
	c-0.1,0.2-0.1,0.3-0.2,0.4c-0.2,0.6-0.5,1.3-0.5,2c0,0,0,0.2,0.1,0.5c0.1,0.7,0.6,2.4,0.6,3.3c0,0.2-0.1,0.2-0.1,0.2
	c-0.3,0.5-1.2,0.8-1.4,2c0.1,0.5-0.2,3-0.5,3c-0.9,0.7-1.3,1.7-1.4,2.4v0.1c0,0.5,0.2,1.4,0.2,2.6c0,0.8-0.1,1.6-0.4,1.9
	c-0.2,0.3-0.5,0.6-0.7,0.7c-0.3,0-0.9,0-1.4,0.5l-0.8,0.5l-0.3,0.4c0,0-0.2,0.8-0.4,1.6c-0.1,0.2-0.1,0.6-0.2,0.8
	c-0.4-0.5-0.8-1.2-1.1-1.6l1.4-5l0.7-6.7l0-0.3l5.1-8.1c0.1-0.4,0.1-0.5,0.1-0.5c-0.1-1.2-0.4-3.6-1.4-4.6c-0.5-0.4-2.4-2.7-2.3-2.9
	c-0.1-0.8-0.7-3.2-0.7-3.2c-0.1-0.3-0.2-0.5-0.4-0.5c-0.2-0.1-0.5,0-0.7,0.1c0,0-3.8,3.2-4.5,3.5c0,0-0.4,0.1-0.8,0.1
	c-1.1,0-2.6-0.3-3.2-0.3h-0.1c-1,0.1-2.7,0.4-3.4,1.7c-0.4,0.7-1.9,3.5-2.2,3.9c-0.6,1-1,3.5-1,5.1c0,0.5-0.2,0.9-0.6,1.4
	c-0.3,0.5-0.6,0.9-0.9,1.5c-0.1,0.3-0.2,0.6-0.2,1c0,0.9,0.3,1.6,0.5,2.7c0,0.2,0,0.7,0,1.1c0,1.3-0.2,2.9-0.3,3.4
	c0,0-0.1,0-0.2,0.1c-0.2,0.1-0.5,0.1-0.7,0.1v0c0,0-0.1,0-0.2,0c-0.3,0-0.6,0.1-0.9,0.2c0.1-0.4,0.2-0.8,0.2-1c0-0.1,0-0.2,0-0.2
	c-0.1-1.1-1.4-3.7-1.6-4.6c-0.3-0.8-1.2-7.8-1.2-9.4v-0.1c0-1.3,1.6-5.7,1.8-6.7c0.1-0.6,1.3-4.1,2-5.4
	C337.8,122.7,338.3,122,338.9,121.4 M352.2,139.8c0,0,0.4,0.2,0.9,0.5l-0.1,0.4c-0.1,0.4,0.1,0.8,0.5,0.9c0.4,0.1,0.8-0.1,0.9-0.5
	l0-0.3c0.5,0.2,1.1,0.3,1.7,0.4l-2,3.1c0,0.1-0.1,0.1-0.1,0.1c-3.5,2.7-7.9,2.8-8.7,2.8h-0.2c-2.3-0.5-4.2-6.5-4.2-6.5
	c0,0,0-0.1-0.1-0.1c0.2-0.4,0.4-0.9,0.4-1.5c0-1.1,0.6-4.1,0.7-4.2c0.4-0.7,1.9-3.2,2.4-4.2c0-0.4,1.5-0.9,2.1-0.9
	c0.5,0,2.1,0.3,3.3,0.3c0.5,0,1,0,1.5-0.2c0.7-0.4,2.6-2,3.8-2.9c0.1,0.7,0.4,1.7,0.4,2c0.3,1.3,2,3,2.7,3.8c0.2,0,1,2.9,0.9,3.4
	v0.2l-2.2,3.5h-0.1c-2-0.1-4-1.3-4-1.3c-0.3-0.2-0.8-0.1-1,0.3C351.7,139.1,351.8,139.6,352.2,139.8 M322.2,150.2
	c0.1,0.8-1.6,0.7-4,2.2c-0.7,0.5-1.5,0.6-2.2,0.6c-0.8,0-1.4-0.2-2-0.4c-0.5-0.2-0.8-0.4-0.8-0.4h0c0,0-4.4-4.2-4.5-4.4
	c-0.3-0.4-0.7-0.6-1.1-0.6c-0.5,0-0.9,0.2-1.2,0.6c-0.1,0.1-0.2,0.2-0.2,0.2v-0.1c-0.1,0.1-0.5,0.1-1.1,0.1h-0.1
	c-1,0-1.5-0.4-1.8-0.8c0.5-0.3,1.6-0.8,1.6-0.8c0.1-0.1,2.7-1.6,5.2-1.7c0.4,0,0.8-0.1,1.2-0.1c0.7-0.1,1.2-0.1,1.8-0.1
	c0.9,0,1.6,0.2,2.7,0.8l2.5,1.5c0,0,0,0,0.1,0.1c0.4,0.7,0.8,1.4,0.8,1.4c0.2,0.4,0.6,0.5,1,0.3c0.3-0.3,0.5-0.7,0.2-1
	c0,0-0.6-1-1.1-1.8c-0.3-0.5-0.6-0.9-0.6-0.9c-0.1-0.2-0.1-0.3-0.1-0.3c0-0.2,0-0.2,0.2-0.4l0.1,0c0.1,0,0.3,0,0.3,0
	c0.1,0.1,0.2,0.1,0.2,0.1c0.1,0,0.7,0.8,1.7,1.6c1,0.9,0.3-0.6,1.2,2.9c0.1,0.5,0.1,0.8,0.1,1.1V150.2z M327.4,147.7
	c-0.3,0.4-0.7,0.7-1,0.9c-0.6,0.3-1.8,0.6-2.7,0.8c0-0.3-0.1-0.6-0.2-1c-0.6-3-0.9-3.2-1.7-3.7c-0.9-0.6-1.4-1.3-1.6-1.6
	c-0.3-0.2-0.7-0.4-1.5-0.4c-0.4,0-0.9,0.1-1.2,0.7c-0.3,0.4-0.4,0.8-0.4,1.2c0,0,0,0.1,0,0.1l-0.8-0.5c-1.2-0.8-2.4-1-3.5-1
	c-0.4,0-0.7,0-1.1,0.1c0.1-1.2,0.4-3.9,0.9-4.2c0.8-0.7,2.4-1.9,3.8-2.1c0.2,0,0.4-0.1,0.6-0.1c0.3,0,0.6,0.1,0.9,0.1
	c2.1,0.9,8.1,3.7,9.4,6.8c0.4,1,0.6,1.7,0.6,2.4C327.8,146.8,327.6,147.3,327.4,147.7 M332.1,164.9c0.1-0.1,2.1-3.2,2.1-8.8
	c0-2.5-0.4-5.4-1.6-8.8c0,0,0-0.1,0-0.1l-2.1-8.3c-0.1-0.4-0.4-0.6-0.9-0.5c-0.4,0.1-0.6,0.5-0.5,0.9l1.5,5.8
	c-0.6,0.1-1,0.4-1.5,0.7c0-0.8-0.2-1.6-0.7-2.6c-1.8-4-8-6.7-10.1-7.6c-0.5-0.2-0.9-0.3-1.4-0.3h-0.1c0-0.1,0-0.1-0.1-0.2h0
	c0,0-0.6-1.1-0.6-2.7c0-1.4,0.4-3.1,2-4.9c3.7-4.4,4.7-4.8,6-4.9c1.6-0.2,4.3-0.6,4.3-0.6c0.3-0.1,2.7-1.8,5.6-1.7
	c1.1,0,2.1,0.2,3.3,0.8c-0.4,0.5-0.8,1-1,1.3c-0.9,1.6-2,4.9-2.2,5.8c-0.1,0.7-1.8,5.1-1.9,6.9v0c0,1.8,1,8.7,1.4,9.9
	c0.3,1,1.6,3.9,1.5,4.2v0.1c-0.1,0.4-0.4,2.4-0.4,2.4c-0.1,0.3,0.1,0.6,0.3,0.7c0.2,0.2,0.5,0.2,0.8,0.1c0,0,0.3-0.2,0.8-0.5
	c0.2-0.1,0.4-0.2,0.6-0.3c0.2-0.1,0.2,0,0.2,0c0,0,0.1,0,0.1,0h0.1c0.4-0.1,1.7,0.1,2.2-1.3c0.1-0.7,0.4-2.3,0.4-3.7
	c0-0.4,0-0.9-0.1-1.3c-0.2-1.2-0.4-2-0.4-2.5c0-0.2,0-0.3,0.1-0.5c0-0.1,0.1-0.2,0.2-0.3c0.6,1.8,2.2,5.6,5.2,6.5h0.3
	c0.8,0,4.8-0.1,8.5-2.4l-0.5,5.3l-1.5,5.2l0.1,0.6c0.1,0.1,1.1,2.3,2.3,2.9h0.1v0h0.1c0,0,0,0,0.1,0c0,0,0,0,0,0v0
	c0.1,0,0.2,0,0.4-0.1c0.9-0.5,0.7-1.2,1.1-2c0.2-0.6,0.3-1.2,0.4-1.4l0.6-0.4h0c0,0.1,0,0.3,0,0.5c0,2.4,0.9,7.2,7.2,12
	c-3.2,1.7-5.2,4.3-5.3,4.4c-0.1,0.1-0.1,0.3-0.1,0.5c-0.6,0.1-1.2,0.1-1.4,0.2c-0.9,0.2-3.4,1.2-3.9,1.2h-0.1
	c-1.4,0.2-2.8,1.6-4.7,2.1c-2.7,1.2-1.5,3.5-3.5,3.7c-1.1,0.3-1.9,1-2.4,1.8c-0.8,1.6-1.1,3.3-1.3,3.3c-0.5,0.2-0.8,0.8-0.8,1.2
	l-8.2-3.9c0-0.2-0.1-0.5-0.1-0.7c0,0,0-0.3,0.1-0.4c0.1-0.4,0.2-0.7,0.2-0.9c0-0.9-0.4-1.6-0.7-2.1c0.2-0.2,0.2-0.3,0.2-0.6v-0.1
	c-0.2-1.2-1.2-1.8-1.8-2.2l0-0.3c0-0.4-0.1-0.8-0.2-1.3c-0.3-0.5-0.7-2.5-0.7-2.5c0-0.1-0.1-0.4-0.1-0.8
	C329.6,170.7,332.1,165.1,332.1,164.9 M317.2,160c0.1,0,2.4,0.4,2.9,1.4c0.3,0.3,2.3,1.4,2.2,1.8c0.9,1.8,2.4,1.2,2.3,2.4
	c0,0,0,0.2,0,0.3l0.4,0.7c0,0,1,0.8,1,1.3l0.5,0.6c0,0,1,0.3,1.4,1.8c0,0.2,0.4,1.7,0.4,1.7c0,0.2,0.4,2.1,0.9,3
	c0,0.1,0.1,0.3,0.1,0.5c0,0.2,0,0.4,0,0.6c0,0.2,0,0.6,0.5,0.8c0,0,0.4,0.3,0.8,0.7c0.2,0.1,0.3,0.3,0.4,0.4c-0.2,0-0.2,0.1-0.2,0.1
	c-0.3,0.3-0.3,0.7,0,1.1c0,0,0.8,0.9,0.8,1.7c0,0.2,0,0.3-0.1,0.4c-0.1,0.3-0.2,0.6-0.2,0.9c0,0.9,0.2,1.5,0.2,2
	c0,0.4-0.1,0.7-0.7,1.2c-0.1,0.1-1.3,1.3-2.3,1.7c-0.6,0.2-1.2,0.3-1.6,0.3c-0.1,0-0.1-0.1-0.1-0.1c-0.1-0.2-0.3-0.6-0.5-0.9
	c-0.6-1-1.8-1.1-1.9-4.3l0-0.3c1-0.5,2.1-1,2.9-1.7c0.5-0.5,0.5-1,0.5-1.5c0-1.2-0.6-2.9-0.7-3.3c0,0,0-0.2,0-0.2
	c-0.1-0.9-0.6-4.7-0.6-5.1c0-0.1-0.1-0.1-0.1-0.2c0.1-0.2,0.2-0.4,0.2-0.4l-0.2-0.8c0,0-0.9-0.6-2.1-1.4c0-0.1,0.1-0.2,0.1-0.2
	c-0.1-0.6-0.4-1.7-1.5-2.6c-1-0.9-2.3-1.7-2.6-1.9c-0.2-0.2-1.9-1.6-1.9-1.6c-1.2-0.4-2.1-0.6-2.9-0.6
	C316.1,160.2,316.9,160,317.2,160 M322.1,213.6c0.1,0,3.1,1.9,3.3,2.9c0.2,0.5,0.3,1.2,0.3,1.9c0,1.2-0.3,2-1.6,2.5
	c0.1,0-0.7,0.1-1.6,0.2c-0.5,0.1-1.1,0.1-1.5,0.1c-0.1-0.5-0.5-1.1-1.3-1.4c-0.3-0.1-0.7-0.2-1.1-0.2c-0.5,0-1.2,0.2-1.8,0.6
	c-0.6,0.4-3.4,2.1-3.9,2.3c-0.7,0.3-2,0.1-2.7,1.3c-0.1,0.2-0.4,1-3.1,2.5l-9.5,2.1c-1.9-3.2-6.9-10.4-7.4-11l0-0.1
	c-0.2-0.3-0.5-0.6-0.9-0.8l0-0.1c0,0-0.3-1.3-0.3-2.7c0-1.2,0.3-2.1,0.7-2.2c0.2-0.1,0.3-0.2,0.5-0.4c0.3-0.3,1-0.9,1.4-1.4
	c0.6-0.7,2.2-2.4,2.5-2.2c1.3-0.2,2.2-1.1,2.9-1.9c0.6-0.7,2.2-2.6,4.2-2.6c0.2,0,0.4,0,0.6,0.1c2.9,0.4,9.7,0.9,9.9,1.2
	c1.1,0.7,4.5,3.3,5.8,3.6c0.3,0,0.8,0,1.4,0.1c1,0.2,2.1,0.6,2.5,1.9c0.3,0.3,0.8,0.8,0.8,1.5c0,0.3-0.1,0.7-0.5,1.3
	c-0.1,0.2-0.1,0.4-0.1,0.6C321.9,213.4,322,213.6,322.1,213.6 M314.2,232.4c-0.2,0.3-0.5,0.7-0.6,0.7c-0.2,0-0.5,0.1-0.6,0.2
	c-0.1-0.1-0.2-0.2-0.3-0.3l-1-0.8c-0.3-0.3-0.8-0.2-1,0.1c-0.2,0.3-0.2,0.8,0.1,1l0.9,0.7c-0.1,0.1-0.1,0.1-0.2,0.1
	c-1.2,0.4-1.2,1.1-2,1.2c-0.4,0.1-0.7,0.1-1.2,0.1c-2,0-4.8-1.3-5.4-2.1c-1-1.2-2-3.2-2-3.2c-0.1-0.4-0.6-0.5-0.9-0.3
	c-0.3,0.1-0.5,0.6-0.3,0.9c0,0,0.2,0.3,0.3,0.6c-0.1,0-0.2,0-0.3,0.1l-0.8,0.6c-0.2-0.8-0.3-1.6-0.6-2.4l9.3-2.1
	c2.9-1.5,3.7-2.6,3.9-3.2v0c0.3-0.2,1.2-0.4,1.8-0.6c1-0.4,3.4-1.9,4.3-2.5c0.4-0.2,0.6-0.4,0.9-0.4c0.2,0,0.4,0,0.7,0.1
	c0.1,0,0.3,0.7,0.4,0.9c-0.5,2.3-2.1,3.2-2.1,3.2l-0.4,0.7c0,0-0.1,3.7-0.2,5.1c0,0.2-0.1,0.3-0.8,0.3c-0.4,0-0.8-0.1-0.9-0.1
	c-0.1-0.1-0.5-0.2-0.8-0.3c-0.2-0.1-0.4-0.2-0.5-0.3h0c-0.1-0.3-0.3-0.6-0.7-0.6c0,0-0.7,0.2-0.7,0.7v0
	C313,231.8,313.7,232.2,314.2,232.4 M312.9,183c-0.1-0.7-0.4-1.3-0.6-1.9c1.7,0.5,5.3,1.2,10.4,1.3c0,3.4,2.1,4.7,2.1,4.9v0
	c-1.5,4.4-6,5.4-9.5,5.4c-1.6,0-2.9-0.2-3.5-0.3c1-2.1,1.3-4.6,1.3-4.7c0.1-0.6,0.1-1.2,0.1-1.7C313.3,185,313.1,184.1,312.9,183
	 M322.2,166.3c-0.4-0.2-0.9-0.5-1.2-0.6c-0.4-0.2-0.4-0.3-0.4-0.3c0-0.1,0.1-0.2,0.2-0.4c0.3,0.2,0.6,0.4,0.8,0.6
	C321.9,165.8,322,166.1,322.2,166.3 M314.7,161.9c0.8,0,1.6,0.1,2.7,0.4c-0.1,0.1,1.4,1.3,1.7,1.6c0.1,0.1,0.3,0.2,0.5,0.3
	c-0.2,0.3-0.5,0.7-0.5,1.3c0,0.7,0.5,1.3,1.3,1.6c1.2,0.5,3.4,2,4.3,2.6c-0.2,0.4-0.7,1-1.9,1.6c-0.3,0.2-0.5,0.6-0.2,1
	c0.1,0.2,0.3,0.4,0.6,0.4c0.1,0,0.2,0,0.3-0.1c0.6-0.3,1.1-0.7,1.5-1c0.1,0.5,0.1,1,0.2,1.5c-0.1,0-0.2,0-0.3,0.1
	c-1.1,0.7-3.3,1.3-3.3,1.3c-0.4,0.1-0.6,0.5-0.6,0.9c0.1,0.4,0.5,0.6,0.9,0.5h-0.1c0.1,0,2.1-0.4,3.6-1.3c0.1,0.5,0.1,0.8,0.1,0.8
	v0.1c0,0,0,0.1,0,0.1c0.1,0.7,0.7,2.2,0.7,3.3c0,0.4-0.1,0.4-0.1,0.4c-0.8,0.6-2.1,1.3-3.2,1.8c-6.9,0-10.8-1.4-11.4-1.6
	c-0.5-1.4-0.7-2.7-0.7-3.5v-0.1c0-0.2,0-0.3,0-0.3c0-1.5-0.8-3.2-1.5-4.2c-0.8-1-1.5-1.8-1.5-3.1c0-0.2,0-0.4,0-0.5
	c0.1-1.8,2.1-4.8,2.4-4.8C311.2,162.6,312.4,161.9,314.7,161.9 M299.1,180.6c0.3-0.8,0.1-0.4,0.5-3.2c0.3-2.6,3-10.6,3-10.6
	c0.6-1.2,2.4-2.5,2.4-2.5c1.4-2.5,3-2.8,4-2.8c0.4,0,0.7,0.1,0.7,0.1l0.4,0c0.2-0.1,0.3-0.1,0.5-0.2c-0.4,0.2-0.6,0.3-0.8,0.4
	c-1.5,0.7-2.9,3.5-3.3,5.8c0,0.2,0,0.5,0,0.7c0,1.9,1.2,3.1,1.8,3.9c0.6,0.8,1.3,2.4,1.2,3.4v0.2c-0.1,0,0,0.2,0,0.2
	c0,1.5,0.4,3.6,1.3,5.6c0.2,0.5,0.4,1.2,0.6,1.9c0.3,1,0.3,1.8,0.3,2.5c0,0.5,0,1-0.1,1.5c0.1,0-1.3,5.8-2.3,6
	c-0.2,0.1-1,0.2-1.9,0.2c-1.5,0-3.4-0.2-5-0.5c-0.8-0.1-1.5-0.4-2-0.6c-0.4-0.2-0.5-0.3-0.6-0.3c-0.6-1.6-1.7-2-4.5-4
	c-0.4-0.3-0.4-0.5-0.5-0.9C294.9,185.4,298.4,182,299.1,180.6 M295.1,189.6c2.6,1.8,3.2,2.1,3.5,3.1c1.1,1.9,5.6,2.2,8.9,2.3
	c1.1,0,1.9-0.1,2.5-0.3c0.4-0.2,0.8-0.6,1.1-1.1v0c0,0,1.9,0.4,4.3,0.4h0.1c0.9,0,1.8-0.1,2.7-0.2l0.2,12.6c-0.3,0-0.6,0-0.7,0
	c-0.1,0.1-4.3-2.6-5-3.3c-1.5-0.9-7.6-1-10.5-1.5c-0.3-0.1-0.6-0.1-0.8-0.1c-3,0-4.7,2.4-5.3,3.1c-0.6,0.6-1.5,1.3-2,1.4
	c-1.5,0.2-2.7,2.1-3.4,2.7c-0.4,0.4-1.1,1.1-1.4,1.4c-0.2,0.2-0.3,0.2-0.3,0.2c-1.3,0.6-1.4,2.2-1.4,3.5c0,0.6,0.1,1.2,0.1,1.7
	c-0.5-0.3-1-0.5-1.5-0.8c-0.2-1.7-0.3-3.3-0.3-4.8C285.9,196.5,293.3,190.8,295.1,189.6 M277.7,213.3c1.9,0.6,7.8,2.3,10.5,4.1
	l0.1,0.1c0.4,0.3,0.7,0.5,0.9,0.8l0,0c0.8,1,7.2,10.3,7.7,11.7c-4.3-4.4-11.9-7.3-12-7.4c-0.4-0.1-0.8,0.1-0.9,0.4
	c-0.2,0.4,0,0.8,0.4,0.9v0c0,0,11.7,4.8,13.4,10c0.2,0.9,0.4,1.5,0.4,1.5c0,0.1,0.7,2.6,0.7,2.8c-0.2,2.7-1.6,10.8-7.4,12.3
	c0.9-1.9,1.6-4.1,1.6-6.6c0-3.5-1.4-7.4-5-12c-0.2-0.3-0.7-0.4-1-0.1c-0.3,0.2-0.4,0.7-0.1,1c3.5,4.4,4.6,8,4.6,11.1
	c0,2.7-0.9,5-2,7c-1.5,2.4-5.5,5.6-11,6.4h-0.4c-2,0-3.4-0.6-4.3-1.2c-0.9-0.6-1.4-1.1-1.4-1.1c-0.1-0.1-0.2-0.2-0.3-0.2
	c0.9-1.9,1.9-4.2,2.2-5.7c1.4-0.2,5-0.9,5.4-3.7c0.1-0.5,0.1-1.1,0.1-1.9c0-2.7-1.8-6-12.5-10.1c1.2-1,3.9-2.7,8.5-2.7
	c0,0,3-0.1,5.3-0.1c0.4,0,0.7-0.3,0.7-0.7c0-0.4-0.3-0.7-0.7-0.7c-2.4,0-5.3,0.1-5.3,0.1c-6.9,0-10.1,3.5-10.3,3.9
	c-0.6,0.4-4.6,3.2-6.7,7.7c-1,2.2-2.1,4.7-2.9,7.5c-3.3-2.1-10.2-9.2-13.3-12.5c-1-1.1-1.6-1.7-1.6-1.7c-0.3-0.3-0.7-0.3-1-0.1
	c-0.3,0.3-0.3,0.7-0.1,1c0,0,0.4,0.4,1,1.1c-0.9,0.4-2.5,1.3-4.1,2.3c-0.4-0.2-1.3-0.8-2.4-1.6c-0.6-0.5-0.7-0.8-0.7-2
	c0-0.6,0.1-1.3,0.1-2.2c0-0.5,0-1.1-0.1-1.7v-0.2c-0.3-2.9,6.1-4.6,7.8-4.8c1.9-0.2,9-2,9-2l3.2-1.4c0,0,0,0.1,0.1,0.1
	c0.1,0,0.1,0,0.2,0c0.2-0.1,0.3-0.2,0.4-0.3l2.8-1.2c0,0.1,0.2,0.1,0.2,0.2c0.6,0.6,1.4,1.6,2.2,2.2c0.7,0.6,1.5,0.6,2.2,0.6
	c0.4,0,0.8-0.1,1.1-0.1c1.2-0.2,2.5-1.2,2.6-1.2c1.1-0.7,0.7-2,0.9-2.6c0-0.6,0.4-2.6,0.5-3c0.1-0.4,0.6-1.7,0.7-2.1
	c0.3-0.3,1.3-0.7,1.9-0.9c0.4-0.3,0.9-0.6,0.9-0.6h0.1c0.1,0,0.4,0.2,0.6,0.2c0.3,0.1,0.6,0.3,0.6,0.3c0.2,0.1,0.9,0.3,2.1,0.3
	c0.7,0,1.7-0.1,2.7-0.4C277,213.8,277.5,213.6,277.7,213.3 M268,272.4c0.6,0.1,3.5,1.9,3.6,2.1c0.3,0.2,2,2,2,2
	c0.4,0.8,1,1.2,1.1,1.3c0.7,0.3,2,1.3,2.1,1.3c0,0.1,3,3.7,3.3,4.1c0.1,0.1,0.2,0.2,0.2,0.4c0,0,0,0-0.1,0l-4-2.5l-3.2-1.2
	c-0.3-0.1-0.7,0-0.9,0.3c-0.2,0.3-0.1,0.7,0.2,0.9c1.1,0.9,2.6,3.7,2.6,3.7c0,0,1,2.3,1.5,3.5c0.1,0.2,0.1,0.4,0.1,0.4
	c0,0.2,0,0.2-0.4,0.4c-0.2,0-0.7-0.5-0.7-0.5l-1.6-2.8l-3.4-4.5l-0.1-0.1c-0.3-0.2-0.7-0.2-1.1,0.1c-0.2,0.2-0.2,0.5-0.1,0.7l0.6,2
	l0.8,1.9l0.8,2.9c0,0,0.6,2.1,0.8,2.6h0h0c0,0-0.1,0-0.1,0.1c-0.3-0.1-0.7-0.2-0.7-0.2l-3-6.7l0,0v0l0-0.1l0,0h0v0l0-0.1l0,0
	c0,0,0,0-0.1,0c-0.1-0.1-0.3-0.1-0.4-0.1c-0.4,0-0.7,0.2-0.7,0.6c0,0,0,0,0,0v0c0,0-0.1,0.7-0.1,1.6c0,0-0.2,0.4-0.7,0.6
	c-0.5,0.4-1.1,0.6-1.2,0.6c-0.4,0.1-1.2,0.2-1.8,1c0-0.1,0-0.1,0-0.1c0-0.3,0.1-0.6,0.1-0.6l0.1-0.1c0.4-0.2,1.1-0.6,1.5-1
	c0.2-0.3,0.2-0.6,0.2-0.8c0-0.8-0.4-1.8-0.6-2.2c-0.5-1-2.5-2-2.6-2.2c-0.3-0.3-2.6-2.2-2.6-2.2c-1.5-1.1-2.4-5.1-2.8-9.8
	c0,0,0-0.3,0-0.4c-0.3-3-0.3-6.2-0.4-9.2c0-0.4,0-0.8,0-1.2c0-3.4,0.5-6.5,1.2-9.2c0.8-3.1,1.9-5.7,3-8.1c1.7-3.6,5.1-6.3,6.1-7
	c11.3,4.2,12.3,7.1,12.3,9c0,0.6-0.1,1.2-0.1,1.8c0.2,1.5-4.7,2.5-4.7,2.5c-0.4,0.1-0.6,0.4-0.7,0.7c0,1.1-1.6,4.5-2.6,6.5
	c-0.5,1-0.8,1.7-0.8,1.7l-2.1,4.4c0,0.1-3,6.9-3.2,8.6c-0.1,0.1,0,0.2,0,0.2C264.5,272.2,267.3,272,268,272.4 M221.7,221.5h0.6
	c0-2.8-2-13.6-2-20.8c0-6.8,3.9-11.1,4.3-11.5c1.7,0.1,3.5,0.1,5.2,0.1c7.9,0,14.6-0.9,16.4-1.1c0.7,2.6,1.6,4.5,2.4,5.9l-0.1,0.1v0
	c0,0-0.1,1.1-0.1,3c0,2.3,0.2,5.9,1.1,10.2c1.3,6.3,3,12,3.5,13.9l-2.8,1.2c0.1,0-7.1,1.7-8.8,1.9c-1.8,0.3-8.8,1.4-9,6.2
	c0,0,0,0.2,0,0.3v1.6c0,0.9,0,1.6,0,2.2c0,1.2,0.2,2.4,1.2,3.2c0.8,0.6,1.5,1.1,2,1.4c-0.9,0.6-1.7,1.3-2.3,2
	c-1.6,1.9-3,3.9-3.6,5.9c-1.2-0.8-4.3-2.9-5.4-3.1c-0.3,0-1.6-0.2-3-0.4c0,0,0-0.1,0-0.2c-1-2.4-1.2-4.6-1.2-6.7
	c0-2.6,0.5-4.7,0.8-6.1c0.8-3.8,1.4-7.6,1.5-9.2L221.7,221.5z M256.4,219.9l-2.1,0.9c-0.6-2.1-2.2-7.6-3.5-13.6
	c-0.9-4.2-1.1-7.7-1.1-10v-1.1c0.3,0.4,0.6,0.8,0.6,1c0.8,1.5,4.8,6.9,4.9,7c0,0,2.6,7,2.5,7.1c0.1,0-1.4,2.3-1.9,4.8
	c-0.1,0.4-0.1,0.7-0.1,1.1C255.8,218.2,256,219.2,256.4,219.9 M286.5,170.8c0.1,0.3,0.4,0.7,0.5,1c-0.4,0.2-1.5,0.6-2,0.5
	c-0.1,0-0.2,0-0.2,0l-0.8-0.4c-0.3-0.2-0.8,0-1,0.4c-0.1,0.3,0,0.8,0.3,0.9l0.8,0.4c0.3,0.1,0.6,0.1,0.9,0.1c1.2,0,2.4-0.6,3-0.9
	c0.3-0.3,0.5-0.6,0.5-0.9c0-0.4-0.2-0.8-0.4-1.1l0.4-0.1c0,0,3.3,0.5,3.9,0.6c0.2,0,1.6,0.2,2.6,0.4c0,0-0.1,0-0.1,0
	c-0.3,0.2-0.7,0.3-0.7,0.3l-3.3,0.5c-0.2,0.1-0.4,0.1-0.5,0.4c-0.1,0.2-0.1,0.4,0,0.7l1.1,1.7c0.1,0.2,0.1,0.4,0.1,0.5
	c0.1,0.7-1.2,1.6-1.2,1.6l-0.3,0.7c0.1,0.4,0.1,0.8,0.1,1.1c0,2-1.2,2.4-1.2,2.4c-1,0.7-1.9,0.9-2.8,0.9c-1.8,0-3.7-1-5.2-1.9
	c-0.6-0.3-1.1-0.6-1.6-0.9c-1.2-0.5-1.3-1.2-1.3-2.4c0-0.6,0-1.2,0-1.9v0c0-0.4,0-0.4,0-0.4c0-1.9,0.8-3.6,1.3-4.2
	c0.2-0.3,2.2-1.2,2.9-1.5l2.1,0.6L286.5,170.8z M283.4,168.5l-1.1-0.3H282c-0.1,0.1-2.8,0.9-3.7,2.1c-0.7,0.9-1.6,2.7-1.6,5.1l0,0.2
	c-0.1,0,0,0.1,0,0.1c0,0.7,0,1.3,0,2c-0.1,1.1,0.2,2.4,1.3,3.3c-1.8-0.1-3.9-0.2-4.2-0.2c-6.3-0.4-8.4-6.3-8.4-6.3
	c-0.2-0.4-0.3-1-0.3-1.6c0-0.9,0.2-1.9,0.3-2.1l3.7-1.9c-0.1,0.1,6.5-2.2,10.1-3.8c0,0,0.1-0.1,0.1-0.1c0.1,0.1,0.1,0.2,0.2,0.3
	C279.6,165.1,282.2,167.2,283.4,168.5 M280.5,158.6c-0.3,0.4-0.7,0.8-1.2,1l-3.7,2.5c-0.3,0.3-0.4,0.6-0.2,1c0.2,0.3,0.7,0.4,1,0.2
	l3.7-2.4c0.2-0.1,0.3-0.2,0.5-0.4c0,0.8-0.1,1.7-0.2,2.2c-0.3,0.2-1,0.6-1.9,1c-3.5,1.6-10.1,3.9-10.1,3.9l-4.5,2.2l-4.9,2.4
	c2.7-2.9,3.8-7.9,4.6-10.1c0.7-2,1.8-2.2,3.6-3.1c1.1-0.6,2.4-1.9,3.8-3.7c0.2,0.2,0.4,0.2,0.6,0.2v0l10.3-2.7c0,0,0,0.3,0,0.7
	C282.1,154.7,281.8,157,280.5,158.6 M301.4,141.6c-0.4,1.1-2.5,6.1-3.1,8.6c-0.2,0.7-0.2,0.7-0.2,0.7c0,0-0.2-0.1-0.4-0.2
	c-0.1-0.1-0.3-0.2-0.3-0.2c-0.2-0.2-0.6-0.3-0.8-0.1l0,0c-0.1,0-0.1,0.1-0.2,0.1h0v0c0,0-0.8,0.8-1,1c0,0.1-0.7,0.1-1.1,0.1
	l-1.2-1.3c-0.2-0.3-0.7-0.3-1,0c-0.4,0.2-0.4,0.7-0.1,1l1,1.1c-0.1,0.1-0.2,0.2-0.3,0.3l0,0.1c-0.8,0.3-1.4,0.8-1.6,1.8
	c-0.1,0.5,0.2,0.3-0.4,0.5h0c-0.7,0-3.3-1.3-3.3-1.3l-4.2-2.2l-0.6-0.3l-0.5-0.1l-10,2.6c0.7-1.2,1.3-2.6,1.8-4
	c0.4-1.2,0.6-2.6,0.6-3.9c0-0.8-0.1-1.5-0.2-2.2c0.2,0.3,0.4,0.5,0.4,0.6c0.3,0.9,1.1,0.9,1.6,0.9c0.8,0,1.6-0.2,2.3-0.1
	c0.4,0,0.6,0,0.7,0.1c0.6,0.3,1.1,0.3,1.8,0.3c1.8,0,4.2-0.6,4.2-0.6c2.5-0.1,4.2-1.9,4.9-2.3c0.8-0.6,2.3-1.8,2.6-1.9h0.1l0.1,0
	h0.3c0.7,0,1.4-0.3,2.2-1.1c0.7-0.7,0.9-1.7,1-2.5l1.9,1.4c2,1.3,2.7,1.3,3.6,1.7C301.8,140.8,301.6,141.2,301.4,141.6 M268.9,131.6
	c0,0,0.2-0.1,0.5-0.1c0.3-0.1,0.6-0.1,0.6-0.1c0.4-0.1,0.6-0.4,0.6-0.8l0-0.3v-0.1c0-0.4,1.4-1.4,3.1-1.9c1.7-0.5,3.5-0.8,3.5-0.8
	c0.4,0,0.6-0.3,0.6-0.7c0-1.7,2.7-2.5,5.7-2.4c2.5,0,4.8,0.4,4.8,0.4c0.7-0.1,1.2-0.1,1.7-0.1c2.2,0,4.3,0.8,6,1.6
	c1.6,0.8,2.7,1.6,2.7,1.6l0.6,0.1c0.3,0,0.5-0.1,0.7-0.1c3-0.1,4.8,3.9,4.8,3.9l0.5,0.4c1.6,0.5,2.1,1.9,2.1,3.5
	c0,1.4-0.4,2.7-0.5,3.1c-0.2,0.5,0.3,0.7-1.6,1.2H305c-0.4,0-1-0.2-1.6-0.4c-1.9-0.8-1.9-0.4-4.2-1.9l-2.9-2.2
	c-0.2-0.2-0.6-0.2-0.8-0.1c-0.2,0.2-0.4,0.4-0.4,0.7c0,0,0,0.2,0,0.5c0.1,0.7-0.1,1.9-0.6,2.3c-0.8,0.7-0.9,0.7-1.2,0.7H293H293
	c-1.4,0.1-2.6,1.6-3.4,2c-1.1,0.7-2.3,2-4.3,2.1c-0.1,0-2.4,0.5-4,0.5c-0.6,0-1.1-0.1-1.2-0.1c-0.5-0.3-0.9-0.3-1.4-0.3
	c-0.8,0-1.7,0.2-2.3,0.2H276c-0.3-0.8-1.1-1.9-2.4-2.7c-0.1-0.2-0.2-0.5-0.3-0.7c-0.8-1.7-2.1-3.3-3.9-4.7c-0.6-0.5-1.3-0.9-2-1.3
	l0-0.1v0c-0.1-0.2-0.1-0.4-0.1-0.4C267.2,133,268.4,131.8,268.9,131.6 M259.3,134c0.1,0,0.2-0.1,0.3-0.1c1.4,0.1,4,0.4,6.6,1.7
	c0.8,0.4,1.5,0.8,2.3,1.4c1.6,1.2,2.7,2.7,3.4,4.2c0.8,1.6,1.1,3.2,1.1,4.9c0,1.1-0.1,2.3-0.5,3.4c-0.5,1.7-1.4,3.3-2.2,4.6
	c-1.3,1.9-2.9,3.4-3.6,3.7c-1.4,0.7-3.4,1.2-4.3,3.9c-0.8,2.4-2.1,7.8-4.4,9.8c0.1-0.2-0.5,0.3-0.4,1.1c0,0.2,0,0.5,0.1,0.9
	c0.1,0.3,0.2,0.8,0.4,1.3c1,2.3,4,8.3,4,12.6c0.1,0,0,0.1,0.1,0.3c-0.1-0.1-0.1,0.1-0.1,0.1c0,4.7,0.9,9,1.9,12.6
	c1.4,3.7,2.8,7.9,4.8,8.5c0.7,0,2.4,0.6,2.7,1.1c0.9,0.9,3.2,1.8,3.9,2.2c0.2,0,0.7,0.3,0.9,0.5c-0.1,0.1-0.2,0.1-0.4,0.2
	c-0.8,0.3-1.6,0.4-2.2,0.4c-1,0-1.6-0.2-1.6-0.2c0.1,0.1-0.8-0.6-1.8-0.6h-0.1c0,0-0.1,0-0.2,0c-0.7,0.2-1.1,0.7-1.3,0.8
	c-0.1,0.1-1.4,0.4-2.2,1.2c-0.1,0.1-0.1,0.2-0.2,0.2l0,0c0,0,0,0.1,0,0.1l0,0.1c-0.1,0.1-0.1,0.2-0.1,0.2c-0.2,0.7-0.5,1.6-0.7,2
	c-0.2,0.6-0.5,2.4-0.5,3.3c0,0.8-0.2,1.5-0.2,1.5c-0.1,0.1-1.6,1-1.9,1c-0.3,0-0.7,0-1,0c-0.6,0-1.1-0.1-1.3-0.3
	c-0.6-0.5-1.4-1.6-2.2-2.2c-0.1-0.1-0.2-0.3-0.4-0.4c-0.4-0.6-0.9-1.5-0.9-2.7c0-0.3,0-0.6,0.1-0.8c0.4-2.3,1.7-3.8,1.9-5v-0.1
	c-0.1-1.1-2.7-7.7-2.7-7.8c-0.1-0.2-4.2-5.8-4.8-6.9c-0.6-1.2-2.8-3.5-4.3-9.4c-0.5-2-0.9-4.3-1.2-7.2c0-0.2-0.4-1.3-0.4-3.7
	c0-0.4,0-0.6,0-0.9c0-0.7,0.1-1.4,0.2-2.2c0.6-4.5,0.4-10.5,0.5-11.5c0-0.2,0.1-0.7,0.1-1.4c0.3-2.1,0.9-5.9,1.9-8.5
	c1.2-3.3,6.3-11.7,6.3-11.7c0.2-0.4,0.1-0.8-0.2-1c-0.1-0.1-0.2-0.1-0.3-0.1c-0.3,0-0.5,0.1-0.6,0.4c0,0-5,8.3-6.4,12
	c-1,2.5-1.5,5.9-1.8,8.1h-0.1h0c-0.4,0.1-0.8,0.2-1.3,0.2c-2.6,0-5.8-3.1-8.7-6.8c-1-1.4-1.4-2.5-1.4-3.6c0-2.6,2.1-5.5,5.5-9.1
	C243,135.7,256.4,134.1,259.3,134 M218.6,161.6c0-0.9,0.5-5.9,1.1-9.5c0.1-0.9,0.3-1.6,0.4-2.2c0.8-3.1,3.4-4.2,5.6-5.4
	c2.3-1.4,4.6-5.9,6.6-7.1c2-1.3,8.1-2.5,12.8-3.5c1.5-0.3,3.6-0.5,5.7-0.5h1.4c-5,0.9-11.2,2.6-14.1,5.8c-3.4,3.7-5.9,6.7-5.9,10.1
	c0,1.5,0.6,3,1.7,4.5c3,3.7,6.2,7.3,9.8,7.3c0.4,0,0.8,0,1.2-0.1c0,0.3,0,0.5-0.1,0.7c-0.1,1.2,0.1,6.9-0.5,11.4
	c0,0.5-0.1,1.1-0.1,1.6c0,0-0.1,0-0.1,0c0,0-0.2,0.1-0.4,0.3h0l0,0l-6.5-2.2c-1.1-0.3-7.2-2.8-8.9-3c-1,0-4.4-1.3-5.6-2.2
	C221.5,167,218.7,162.6,218.6,161.6C218.6,161.7,218.6,161.6,218.6,161.6 M204.8,173.2c-0.4-0.2-1.1-2.3-1-3.7
	c0-0.8,0.2-1.3,0.3-1.4c1.3-1.2,4.6-5.1,4.6-5.1c4-7.2,7.9-9.4,9.4-10.1c-0.5,3.4-0.9,7.4-1,8.5c0,0.1,0,0.2,0,0.2v0.1
	c0.2,1.8,3,5.9,4.8,7.2c1.6,1,4.8,2.3,6.4,2.4c1,0,7.3,2.6,8.5,2.9l5.5,1.8c-1.6,1.2-4.2,3-6.9,4.8c-1.1,0.7-2.1,1-2.9,1
	c-2.8,0.1-5.3-2.5-7.1-3.8c-0.9-0.6-2.1-0.9-3.3-0.9c-2.7,0-6,0.9-8.9,1.4c-0.2,0-0.5,0-0.7,0c-1.9,0-3.7-1.2-5-2.5
	c0,0-0.1-0.1-0.1-0.1c-0.1-0.1-0.2-0.2-0.2-0.2C206,174.7,205.3,173.7,204.8,173.2 M206.3,179.4c0-0.9,0.2-1.6,0.5-2
	c1.4,1.3,3.4,2.5,5.7,2.5c0.3,0,0.6,0,0.9-0.1c3.1-0.5,6.4-1.3,8.7-1.3c1.1,0,1.9,0.2,2.4,0.6c1.7,1.2,4.4,4,8,4.1
	c1.1,0,2.4-0.4,3.7-1.2c3.3-2.2,6.4-4.4,7.9-5.4c0,0,0.1-0.1,0.1-0.1c0,2.4,0.4,3.8,0.5,3.8c0.2,2.4,0.6,4.6,1,6.5
	c-2,0.3-8.5,1.1-16.1,1.1c-1.8,0-3.7,0-5.7-0.1c-2.9-0.2-6-0.5-8.8-1.1c-1.6-0.3-3.1-0.7-4.6-1.2c0,0-0.1,0-0.1-0.1
	c-0.7-0.2-1.4-0.4-2.1-0.7C206.7,182.3,206.3,180.6,206.3,179.4 M195.3,236.5l-0.1-0.1l-4.7-3.3c-0.6-0.6-0.8-1.1-0.8-1.5
	c0-0.7,0.5-1.3,0.5-1.4c0,0,6.6-6.7,9.7-13.3c1.7-5.2,2.2-17.4,2.3-17.4c0.7-6,2.3-9.5,3.7-11.4c0.9-1.4,1.7-1.9,2.1-2.1
	c0.4,0.1,0.8,0.3,1.1,0.4c-1.5,1.7-5.2,6.7-5.4,14.6l-1.7,20.9c0,0.1,0,0.2,0,0.2c0,0.2-0.1,1.2-1.2,4.1c0,0-1.7,3.8-2.7,5.9
	c-0.7,1.6-0.8,1.7-0.9,1.9C196.8,234.9,195.6,236.2,195.3,236.5 M202.4,239.6c-0.8-0.1-1.9-0.4-3-0.7c-0.9-0.2-1.7-0.5-2.4-0.8
	c-0.3-0.1-0.6-0.3-0.7-0.3l-0.1,0c0-0.1-0.1-0.2-0.1-0.2c0.5-0.5,1.6-1.7,2.1-2.6c0.2-0.3,0.3-0.5,1-2.1c1.1-2.2,2.7-6,2.7-6
	c1.1-2.9,1.3-4.1,1.3-4.7v-0.2l1.6-20.8c0.2-8.6,4.9-13.6,5.5-14.3c1,0.3,2,0.5,3,0.7c-1.9,1.7-5.9,6.5-5.9,15.1c0,0,0,0.2,0,0.3
	c0,4.4,0.4,9.5,0.4,14.4c0,6.7-0.6,13.1-2.9,17.3c-0.4,0.6-0.7,1-1,1.6C204.2,236.5,202.7,238,202.4,239.6 M211.9,243.2
	c-0.3-0.2-0.9-0.7-1.4-1.3c-1.7-1.8-3.6-1.6-6.2-1.7c-0.4-0.1-0.3,0-0.4-0.2c-0.1-0.6,1.4-2.6,1.4-2.6c0.5-0.6,0.8-1.2,1.1-1.8
	c2.6-4.6,3.1-11.2,3.1-17.9c0-5-0.3-10.1-0.4-14.4V203c0-10.6,6.3-14.7,6.2-14.7c0,0,0,0,0.1,0c2.4,0.4,4.8,0.7,7.3,0.9
	c-1.3,1.8-3.9,5.9-4,11.6c0,7.4,2.1,18.2,2.1,20.8c0,0,0,0.2,0.1,0.4c-0.1,1.1-0.7,5-1.5,8.7c-0.3,1.3-0.8,3.5-0.8,6.3
	c0,2,0.3,4.3,1.2,6.7c-0.7-0.1-1.4-0.2-2-0.2h0h-0.2c-0.2,0-0.3,0-0.5,0.1h0c-0.6,0.1-1.1,0.1-1.7,0.1
	C213.4,243.6,211.9,243.2,211.9,243.2 M219.1,257.8c-0.1,0.1-0.2,0.2-0.4,0.4c-1.1,0.9-3.3,2.3-4,2.6h0c-3.9-0.1-4.5-2.1-4.6-5
	c0-1.9,0.5-3.9,0.6-5.3c0.1-2.2,4.7-5.1,6.3-5.5c0.2-0.1,0.4-0.1,0.6-0.1h0.1c0.9,0,2.1,0.2,3.3,0.3c1.4,0.2,2.7,0.4,3.1,0.4
	c0-0.1,1.4,0.7,2.7,1.6c1.1,0.7,2.2,1.4,2.4,1.6v0.2l0,0.3c0,1.6,0.8,2.9,1.6,3.9c-1.5-0.1-2.9-0.1-3.4-0.1h-0.1h0
	C225.5,253.2,220.5,256.2,219.1,257.8 M220.8,258.7c0-0.2-0.1-0.3-0.2-0.4c1.3-1.2,5.9-3.8,6.6-3.8h0h0c1.1,0.1,3.3,0,5.3,0.2
	c1.4,0.1,2.7,0.5,2.7,0.6c0.9,1,1.3,4.9,2.3,6c0.6,0.5,5,4.1,5,4.1c0.3,0.2,0.8,0.2,1-0.1c0.3-0.3,0.2-0.8-0.1-1c0,0-4.5-3.7-5-4.1
	c-0.2,0.1-1-4.3-2.1-5.8c-0.7-0.8-1.9-1-3.2-1.2l0,0c-0.8-0.6-2.5-2.3-2.5-4c0,0,0,0,0-0.1c0-0.2,0.1-0.5,0.1-0.8
	c0.4-1.8,1.8-4.1,3.5-6.1c0.6-0.7,1.7-1.6,2.9-2.4c1.9-1.2,4-2.3,4.8-2.7c3.4,3.6,10.2,10.5,13.6,12.6l0,0c-0.6,2.7-1.1,5.6-1.1,8.9
	c0,0.3,0,0.8,0,1.2c0.1,2.9,0.2,6.1,0.4,9.1c-2.3,2-5.7,2.5-9.6,2.5c-2.7,0-5.7-0.3-8.6-0.4c-6.3-0.4-11.6-3.8-13.6-5.8
	c-0.2-0.2-0.4-0.4-0.5-0.5C221.3,263.1,220.8,258.7,220.8,258.7 M289.1,292.5c0.5,0.7,1.5,2,2.5,3.8c0.5,0.9,0.8,2.5,0.8,4.1
	c0,2.1-0.3,4.2-0.5,5.3c0,1.4-1,1.5-3.7,4.6c-1.1,1.2-3,1.7-5,1.7c-2.1,0-4.2-0.5-5.5-0.9c-2.9-0.8-9.3-2.1-13.1-2.6
	c-3.4-0.3-10.8-4.7-12.6-5.6c-1.6-0.7-10.3-7.9-11.2-8.8c-1.3-1.1-3.7-1.6-4.7-1.8c0,0,0,0-0.1,0c-0.1,0-0.1,0-0.1,0
	c-1.9,0.1-7.4,4.3-8.1,4.7c-0.6,0.3-1.5,1-1.9,2c-0.1,0.2-0.2,0.6-0.2,0.7c0,0.7,0.3,1.1,0.5,1.6c0.5,1.1,1.7,1.1,1.9,1.3
	c0.4,0.2,1.1,0.3,1.7,0.5c-0.1,0.2-0.2,0.3-0.4,0.5c-0.2,0.2-0.3,0.4-0.5,0.5c-0.1,0.2-0.1,0.1-0.1,0.1c-0.9,0.7-0.7,1.4-0.7,1.7
	c-0.1,0.1-0.6,0.2-0.7,0.2c0.1,0,0,0-0.1,0c-0.3,0-0.8-0.1-1.2-0.1c-0.2,0-0.3,0-0.3,0l0,0c-0.3,0-1.4-0.1-1.5-0.1c0,0,0,0,0,0
	c-0.1-0.1-0.3-0.3-0.5-0.5c-0.1-0.1-0.1-0.2-0.1-0.2c-0.4-1-3.3-6-3.4-7l-0.2-0.1h0.2c0-1.2,2.2-6.9,3.3-9.3
	c1.3-2.8,1.3-5.7,1.4-7.1c0-0.8,0.6-1.5,0.9-1.9c5.6,4.8,10.6,10.4,17.4,13.6c6.8,3.2,21.5,9.1,23.2,9.6c0.3,0.2,0.9,0.4,1.7,0.7
	c2.9,1.2,8.3,3.6,8.9,4.2c0.3,0.3,0.7,0.3,1,0c0.3-0.3,0.3-0.7,0-1c-0.7-0.7-3.2-1.9-5.6-2.9h0.6c11.9,0.1,13.2-6,15.4-10.8
	C288.8,293.1,289,292.7,289.1,292.5 M284.9,278.5c0.9,2.8,1.7,5.2,1.8,5.6c0.4,1,1.6,2.4,1.6,4.9c0,0.4-0.1,0.9-0.1,1.4
	c-0.1,0.2-0.1,0.4-0.2,0.6c-0.2,0.6-0.4,1.1-0.7,1.8c-2.6,5.1-2.7,9.8-14.1,10c-0.4,0-0.9,0-1.5,0l-3.1-0.3h0h-0.1
	c-0.6-0.2-1.2-0.5-1.5-0.6c-1.5-0.5-16.3-6.4-23-9.6c-6.5-3.1-11.5-8.6-17.2-13.6c-0.2-0.1-0.2-0.2-0.3-0.3
	c-2.9-2.7-3.5-6.5-3.5-9.1c0-0.9,0.1-1.6,0.2-2.2c2.6,2.2,7.6,5,13.6,5.4c2.9,0.2,5.9,0.5,8.7,0.5c3.6,0,7.1-0.5,9.7-2.3
	c0.4,4.2,1.1,7.9,3.2,9.6c0,0,2.3,1.9,2.5,2.1c0.2,0.2,0.8,0.6,1.3,1c0.3,0.2,0.6,0.4,0.7,0.6c0.2,0.2,0.2,0.2,0.2,0.2
	c0.1,0.3,0.5,1.3,0.5,1.7c-0.2,0.1-1.2,0.6-1.6,1.2c-0.1,0.2-0.3,0.7-0.3,1.2c-0.1,0.5,0.1,1.2,0.8,1.6c0,0,0.2,0.1,0.6,0.2
	c0.4,0,0.8-0.2,1.1-0.6c0.2-0.4,0.7-0.5,1-0.6c0.5-0.2,2.1-0.6,2.8-1.8l2.4,5c0.4,0.3,1,0.7,1.7,0.7c0.3,0,0.5-0.1,0.7-0.1
	c0.3-0.3,0.9-0.7,0.9-1.4c0-0.2,0-0.4-0.1-0.5c-0.1-0.4-0.7-2.5-0.7-2.5l-0.7-2.5l0.5,0.7l1.7,2.9c0.2,0.1,0.7,1.1,1.8,1.2
	c0.2,0,0.3,0,0.4-0.1c0.4-0.2,1.4-0.6,1.4-1.7c0-0.3-0.1-0.6-0.2-0.9c-0.5-1.2-1.5-3.6-1.5-3.6s-0.5-1-1.2-2l0.5,0.2l4.1,2.6
	l0.4,0.1c0.1-0.1,0.8,0,1.4-0.7c0.2-0.3,0.3-0.6,0.3-0.8c0-0.6-0.4-1.1-0.6-1.4c-0.3-0.3-3.4-4.2-3.4-4.2c-0.1-0.1-1.4-1.1-2.3-1.5
	c0,0-0.5-0.5-0.4-0.6c-0.4-0.9-2-2.1-2.4-2.6c-0.6-0.4-3-2-4.3-2.3c-1-0.2-2.6-0.7-2.6-1.1v-0.1h0c0.4-1.7,3.1-8.3,3.1-8.3l2.1-4.3
	c0,0,0.2-0.5,0.6-1.2c0.6,0.6,2.7,2.6,6.7,2.6c0.3,0.6,3.1,6.5,3.3,8.3C281.7,268.5,283.5,274,284.9,278.5 M284.2,271.5
	c-0.6-2.2-1.2-4-1.3-4.7c-0.3-2.1-2.5-6.7-3.2-8.2c5.1-1,9-3.9,10.8-6.5h0c2.6-0.4,4.5-1.7,5.9-3.4c-0.3,2.1-0.8,4.6-2.2,8.2
	c0,0-1.1,3-2.4,5.6C291.3,264.9,286,269.9,284.2,271.5 M289.5,268.4c1.7-1.8,3.3-3.9,3.7-5.4c0.5-0.9,0.8-1.7,1.2-2.6
	c0.1,4.3,0.5,10.7,0.7,13.6C292.1,271.1,289.6,268.5,289.5,268.4 M324.8,272.7c-0.1,0.7-0.1,1.6-0.1,2.5c0,0.5,0,1,0.1,1.5
	c-0.6-0.2-1.2-0.3-1.8-0.3c-3.2,0.1-5.7,2.4-8.9,3.5c-3.1,1-6.4,1.4-8,1.5c1.2-3.1,4.4-12.2,5.3-19.7c0,0,0.5-4.6,0.9-11
	c0-0.3-0.3-0.7-0.6-0.7c-0.4,0-0.8,0.3-0.8,0.7v0c-0.5,6.3-0.9,10.9-0.9,10.9c-0.8,7.7-4.4,17.4-5.4,19.9c-1.7-0.5-4.8-3.2-7.8-5.9
	v-0.1v0c0,0-0.8-11.4-0.8-16.6c0-1,0.1-1.8,0.1-2.1l0-0.1c1.8-5.2,2-8.3,2.7-10.9l0-0.2c1.3-2.8,1.7-5.9,1.7-7.3v0
	c0-0.8-0.7-3.1-0.7-3.1s-0.2-0.6-0.3-1.4l1.2-1.1c0,0,0,0,0.1,0c0.4,0.6,0.7,1.2,1.2,1.7c1.2,1.3,3.9,2.6,6.5,2.6
	c0.5,0,1.1-0.1,1.5-0.2c1.4-0.4,1.8-1.3,1.9-1.2c1-0.3,1.7-1.1,2.1-1c1-0.3,1.6-1.2,1.9-1.8c0.2,0,0.4,0.1,0.6,0.1
	c0.7,0,2.1-0.2,2.2-1.7c0.1-1.2,0.1-3.8,0.2-4.8c0.6-0.4,1.8-1.6,2.3-3.6c1.2-0.1,3.3-0.3,3.3-0.3c2.2-0.6,2.8-2.4,2.8-3.9
	c0-0.9-0.2-1.7-0.4-2.3c-0.5-1.5-2.4-2.7-3.4-3.3c0.2-0.5,0.4-1,0.4-1.4c-0.1-1.5-1.1-2.2-1.1-2.3c-0.4-1.4-1.7-2.1-2.8-2.4
	l-0.3-13.2c2.4-0.6,4.8-2.1,6.2-4.9l0.3,0.2c0,0,0.2,0,0.6,0c0.5,0,1.3-0.1,2.2-0.4c1.5-0.6,2.7-1.9,2.7-1.9
	c0.7-0.5,1.1-1.2,1.2-1.9l8.2,3.9c0.1,0.5,0.2,0.9,0.2,1.3v0.3c-0.1,0.2-0.1,0.5-0.1,0.5c0.1,1.6,1.2,2.3,1.2,2.3
	c0.1,0.1,0.2,0.2,0.3,0.2v0.4c0,1.2,0.1,2.4,0.3,3.9c0,0,0.3,2.5,1.9,4.7c0,0.1,0,0.1-0.1,0.1c0,0-0.8,2.2-1.2,2.4
	c-1,0.8-4,4.6-4.1,8.2c0,0.3,0,0.6,0.1,1c0.7,3.2,2.3,8.5,2.3,8.5c0.1,0.4,0.4,0.5,0.8,0.5l0.6-0.1c-0.4,1.1-1.2,3.1-1.5,3.3
	c-0.4,0.4-2.9,2-4.9,7.7c-0.4-0.2-1.1-0.4-1.9-0.4c-1.1,0-2.4,0.4-3.8,1.7c-1.8,1.7-2.4,2.2-2.5,2.2c0,0.1-0.1,0.1-0.1,0.1v0
	c0,0,0,0-0.1,0.1c-0.7-1.6-0.9-3.1-0.9-4.4c-0.1-7,7.9-10.2,7.9-10.2c0.3-0.2,0.5-0.6,0.4-1c-0.2-0.4-0.6-0.5-0.9-0.4
	c0,0-2.4,1-4.7,3.1c-0.1-1.7-0.3-4.6-0.4-6.9c0.2-0.4,1.4-4.1,3-8c1.6-4.1,4-8.5,5-8.7c0.4-0.2,0.6-0.6,0.4-1
	c-0.1-0.4-0.6-0.6-0.9-0.4c-2.3,1.1-4.9,6.9-6.7,11.6c0.6-3.3,1.6-7.9,2.6-12.1c0.1-0.4-0.2-0.7-0.6-0.8c-0.4-0.1-0.7,0.1-0.8,0.5
	c-1.6,7-3.3,15-3.4,16.8c-0.1,0.4-0.1,0.9-0.1,1.4c0,3.2,0.4,8.5,0.5,9c-1.5,1.7-2.7,4-2.7,7c0,1.6,0.3,3.4,1.2,5.4
	c0,0.1,0.1,0.2,0.1,0.3c-1.1,1.5-1.1,1.6-1.4,2.2c-0.2,0.8-1.2,4.7-1.2,5.7v0v0c0,0.2,0,0.7-0.1,1c-0.1,0.2-0.1,0.4-0.1,0.5l0,0
	c-0.1,0.1-1.1,0.7-1.5,0.9c-0.4-0.7-1.4-2.1-2.5-2.5c-0.2-0.1-0.6-0.1-0.9-0.1c-0.4,0-1.3,0.1-1.4,1.1c0,0.1,0,0.3,0.1,0.4
	c-0.4,0.1-1.1,0.2-1.2,1.3c0,0.7,0.4,1.1,1.1,1.6l2.1,1.9c0.1,0,2,1.7,3.5,2.1c0.3,0.1,0.8,0.1,1.2,0.1c0.8,0,1.7-0.2,2.4-0.6
	c-0.1,0.3-0.2,0.6-0.2,0.6c-0.6,0.9-1.2,2.8-1.2,3.9c0,0.2,0,0.5,0.2,0.8c0-0.2,0.2,1.5,1.8,1.7c0.6,0,1.1-0.4,1.5-1l0.3-0.4
	c-0.6,2-1.2,3.6-1.6,4.4C326.9,267.7,324.9,270.1,324.8,272.7 M332.3,244.4c-0.4-0.1-0.8,0.1-0.9,0.5c-0.1,0.4-1,1.5-1.1,3.4
	c0,0.9-0.9,0.9-1.1,0.9c-0.3-0.1-0.4-0.4-0.5-1.3c0-0.7,0.1-1.5,0.2-1.9c0.1-0.4-0.2-0.7-0.6-0.8c-0.4-0.1-0.7,0.2-0.8,0.6
	c0,0.3-0.2,1.2-0.2,2.1c0,0.7,0.2,1.7,0.8,2.3c0,0.3-0.1,1.1-0.3,2c-0.1,0.1-0.2,0.2-0.3,0.3c-0.6,0.9-1.7,1.2-2.6,1.2
	c-0.4,0-0.7,0-0.9-0.1c-0.9-0.2-2.9-1.8-2.9-1.8l-2.2-1.9c-0.2-0.2-0.3-0.3-0.4-0.4c0.3-0.1,0.9-0.2,1.2-1.2l0-0.3
	c0.1,0,0.3,0,0.4,0.1c0.1-0.1,1.9,2.1,2,2.2c0.4,0.4,0.4,0.3,0.6,0.4c1.1-0.1,2.2-1.1,2.6-1.4c0.7-0.8,0.6-1.8,0.7-2.6l0,0v0
	c0-0.4,1-4.7,1.1-5.1c0.3-0.7,0-0.2,2.1-3c0.1-0.1,0.6-0.5,2.6-2.4c1.1-1.1,2.1-1.3,2.8-1.3c0.6,0,1.1,0.2,1.4,0.4
	c-0.9,2.9-1.8,6.7-2.4,11.8c0,0-1.2,4.1-2.4,8.4c-0.1,0-0.1,0.1-0.2,0.1l-1.4,2.3l-1.3,1.8c-0.3,0.4-0.4,0.4-0.4,0.4
	c-0.1,0.1-0.1,0-0.3-0.4c-0.2-0.2-0.2-0.5-0.3-0.5l-0.2-0.2h0.2c-0.1-0.5,0.7-2.7,1-3.2c0.4-0.7,0.5-1.7,0.8-3
	c0.1-0.9,0.3-1.8,0.3-2.3c0.6-0.1,2.1-0.5,2.2-2.3c0.1-1.5,0.7-2,1.1-3C332.9,244.9,332.6,244.5,332.3,244.4 M326,319.2l-20.4-6.9
	v-4.2l20.4,6.7V319.2z M366.9,307.8l-39.5,11.6v-4.7l39.5-11.2V307.8z M341.4,306.3c0.4-0.1,0.6-0.4,0.5-0.8l-0.9-6.1l3.4-0.8
	l20.2,4.2l-37.9,10.8l-19.3-6.3l19.6-4.6l-1.2,6.3c-0.1,0.4,0.1,0.7,0.5,0.8c0.4,0.1,0.7-0.1,0.9-0.4l2.7-7.3l8.5-2l2.1,5.9
	C340.7,306.2,341.1,306.4,341.4,306.3 M330.6,300.3l4.1-10.4l3.2,8.7L330.6,300.3z M339.4,298.3l-0.1,0.1l-3.9-10.7
	c-0.1-0.3-0.4-0.4-0.7-0.4c-0.3,0-0.6,0.2-0.7,0.4l-5.2,13.1h-0.1l1.3-9.3v-0.1c0.3-0.6,0.8-1.7,1.1-2.9c0.4-1.7,1.6-6,2.8-7.9
	c0.7-1.1,1.9-1.5,2.6-1.7l0.1,1.8L339.4,298.3z M351.1,244.1c-5.1,9.4-12.3,17.9-12.9,19.4c-0.2,0.8-0.5,1.7-0.5,2.7
	c0,1.4,0.3,3.4,1.1,6.7c0.2,0.7,0.2,1.5,0.2,2.1c0,1.5-0.4,2.9-0.9,3.9l-0.1-1c0-0.4-0.4-0.6-0.8-0.6c-0.1,0-2.7,0.2-4.4,2.6
	c-1.4,2.2-2.6,6.5-3,8.4c-0.2,0.9-0.6,1.8-0.9,2.4c-0.3-0.3-0.4-0.8-0.4-1.2h0l0.1-0.2l-0.6-9.5l-0.3-0.5c-0.5-0.3-0.8-0.7-1-1.1
	c0-0.1-0.1-0.1-0.1-0.1c0,0,0-0.3-0.2-0.4c-0.2-0.7-0.3-1.5-0.3-2.3c0-0.8,0.1-1.6,0.1-2.4c-0.1-1.8,1.8-4.3,3.3-7.5
	c0.7-1.5,1.9-5.3,3-9.1c1.4-4.4,2.6-8.8,2.6-8.8c0.7-5.5,1.6-9.4,2.6-12.3c2.1-6.1,4.2-7.3,4.8-7.9c1.1-1,2.1-4.5,2.1-4.5L358,221
	c0,0,0.8-0.2,1.8-0.6l-4.1,8.8l-0.1,0.4c0,0.2,0,0.6,0,0.9c0,3-1.2,6.8-3,10.6C352.1,242.2,351.6,243.1,351.1,244.1 M365.2,254.9
	c0,0-5.5,8.4-6.2,9.5c-0.7,1.1-0.7,2.7-0.8,3.9c0,0.6,0,1.2,0.1,1.4c0,0.6-0.5,2.3-0.5,2.3c-0.1,0.3-0.1,0.6-0.1,0.8
	c0,1.6,0.9,3.3,1.8,4.4c1,1.2,2.2,2,2.5,2.8l0,0.2c0.1,0.6-0.9,2-2.3,2.6c-0.8,0.4-2.6,0.6-4.6,0.6c-1.5,0-3.1-0.1-4.4-0.3
	c-2-0.3-2.1-1.7-2.1-2.6c0-0.3,0-0.4,0-0.4c0,0.1,1.3-4.2,1.6-4.8c0.2-0.6,0.2-1.5,0.2-2.4c0-0.8,0-1.6-0.1-2.2
	c-0.1-0.1-0.1-0.2-0.1-0.2c0-1.1,1.3-4.2,2.5-5.7c1-1.5,1.1-3.8,1.1-5.6c0-1-0.1-1.9-0.1-2.2c-0.1-0.1-0.1-0.6-0.1-1.2
	c0-3.2,0.1-11.6,0.1-13.3c5.8-1.3,10.9-2,14.8-2.4C367.7,251.2,365.1,254.8,365.2,254.9 M370.2,281.4l-1.5-5.6
	c-1.2-3.2-1.6-6-1.6-8.5c0-5,1.8-8.5,2.3-9.9c0.7-1.9,5.4-10.8,5.4-10.8l2.8-6l0.4-1.8c0.1-0.4,0.2-0.8,0.3-1.5
	c0.8-3.2,1.8-8.7,1.9-10.8c0-0.2,0-0.3,0-0.5c0-2.4-1-6.7-1.7-8.7c-0.4-0.9-0.5-1.7-0.5-2.6c0-0.7,0.1-1.3,0.2-2.1
	c0.1-1.3,1.9-7.9,2.3-9.8l8.8-0.4c0.1,0,3-0.3,5-1.6c0.3-0.2,0.4-0.7,0.2-1c-0.2-0.3-0.7-0.4-1-0.2c-1.6,1-4.4,1.4-4.4,1.4l-13,0.7
	c-0.4,0-0.7,0.4-0.7,0.8c0,0.4,0.3,0.7,0.7,0.7h0l2.8-0.1c-0.4,2.1-2,8.1-2.2,9.5c-0.1,0.7-0.2,1.4-0.2,2.3c0,0.9,0.2,2,0.6,3.1
	c0.7,1.7,1.6,6.1,1.6,8.2v0.2c-0.1,2.1-1.1,7.7-1.8,10.8c-0.1,0.4-0.2,0.8-0.3,1.1c-1,0-3.6,0-7.3,0.4h-0.2c-3.8,0.3-8.9,1-14.7,2.3
	c1.6-3.5,2.7-7.1,2.7-10.1c0-0.3-0.1-0.6-0.1-0.9l4.4-9.5l0-0.1c0.1-0.2,0.1-0.3,0.1-0.4c1.1-0.5,2.2-1.1,2.9-2
	c1.8-2.1,6.7-10.1,6.7-10.2c0,0,0.1-0.1,0.1-0.1c0.4-0.7,0.9-1.4,1.3-2.2c0,0,0.1-0.2,0.2-0.4c0,0,0.1,0,0.1,0
	c0.1-0.4,0.3-0.8,0.4-1.2c0.6-1.4,1.6-3.5,2.5-5.4c0.1,0.2,1.6-0.8,1.9-0.8c5.4-2.1,7.1-8.9,7.2-9v-0.5c2.7,3.2,9.4,10.3,17,12.5
	c-6.7,8.1-11.8,16.9-15.6,25.2c-0.2-2.7-0.3-5-0.3-6.5c0-1.4,0.1-2.1,0.1-2.1c0-0.4-0.3-0.7-0.7-0.8c-0.4,0-0.7,0.3-0.8,0.7
	c0,0-0.1,0.8-0.1,2.1c0,2,0.1,5.1,0.6,8.9l0.1,0.1c-9.4,21.8-10.6,40.7-10.6,40.8c0,0.1,0,0.2,0.1,0.2c0,0.2-0.1,0.4-0.1,0.6
	c0,2,1.6,3.9,6,5.2h0.1c0.1,0,0.1-0.1,0.2-0.1c-0.3,1.6-0.7,3.1-1.1,3.9c-1.7,4-2.9,7.1-2.9,9v0c0,0.6-0.1,1.6-0.4,2.6
	c-0.1-0.1-0.2-0.1-0.3-0.1C373.4,289.7,372.9,289.6,370.2,281.4 M375.8,269.3c0,0,2.1-3.1,2.4-3.3c0.9-0.7,2.4-1.9,4.3-3.4
	c-0.3,2.2-0.9,7.2-1.6,11.2c-0.1,0-0.1-0.1-0.2-0.1c-4.2-1.3-5.1-2.8-5.1-3.9C375.7,269.7,375.8,269.5,375.8,269.3 M391.5,298.9
	L391.5,298.9v0.1c0,0.8-1.7,2.6-2.3,2.9c-0.5,0.4-2.1,1-3,1.6c-0.2,0.1-0.6,0.2-1.2,0.2c-0.5,0-1.1-0.1-1.6-0.1c-0.8,0-3-0.8-3-0.8
	h-0.4c0,0-1.6,0.3-2.9,0.3c-0.2,0-0.5,0-0.7-0.1c-0.8,0.1-1.1-1.2-1.2-3.4c0-0.1,0-0.2,0-0.4c0-0.5,0.1-1.1,0.2-1.6
	c0.4-1.2,0.9-2.3,1.3-3c0.6-1.3,1.6-5.2,1.6-7v0h-0.6h0.6c0-1.3,1.2-4.5,2.8-8.4c1.8-4.3,3.1-17.6,3.1-17.6c0,0,0-0.2,0-0.3
	c6.9-5.6,16.9-13.8,19.5-17.4c0.3-0.5,0.7-1,1.2-1.4v0.4c0,15.8-15.3,37.2-16.8,40.2c-0.6,1.1-0.7,2.2-0.7,3.5
	c0,1.9,0.4,3.9,0.7,5.1c0.2,0.9,0.4,1.4,0.4,1.4C388.4,293.5,391.4,297.9,391.5,298.9 M418,292.5h-1.4c-2.7-0.1-3,0-5.9-0.2
	c-1.4-0.1-2.9-0.1-4.4-0.2c0,0-0.1,0-0.1-0.1c-4.6-1-10.8-7.9-10.9-7.9c-0.2-0.3-0.7-0.3-1-0.1c-0.3,0.3-0.3,0.7,0,1
	c0.2,0.2,3.9,4.4,8,6.8c-2.2-0.1-4.2-0.2-6-0.3c-2-0.2-3.7-0.3-4.9-0.4c-0.6-0.1-1.1-0.1-1.4-0.2c-0.2,0-0.3,0-0.4-0.1
	c-0.1,0-0.2-0.1-0.3-0.1c-0.2-1.2-0.5-2.7-0.5-4.1c0-1.1,0.1-2.2,0.5-2.8c0.9-1.8,7.8-11.7,12.6-22.8c2.6,2.9,5.1,5.7,7.5,8.3
	c0,0.1-0.1,0.3-0.1,0.3c0.3,14.9,7,20.7,11.1,22.9C419.4,292.5,418.7,292.5,418,292.5 M423.7,292.3c-0.1,0-0.1,0-0.2,0
	c0,0-11.8-2.1-12.8-21.4c4.1,4.4,7.2,7.6,7.2,7.6c0.1,0.1,0.3,0.2,0.5,0.2c0.2,0,0.4-0.1,0.5-0.2c0.3-0.3,0.3-0.7,0-1
	c0,0-8.5-8.9-16.2-17.6c-0.1-0.1-0.2-0.1-0.3-0.2c2.3-5.6,3.9-11.4,3.9-16.7c0-0.5,0-1,0-1.5c2.4-1.5,5.5-1.8,7.2-1.8
	c1,0,1.6,0.1,1.6,0.1c0.4,0,0.8-0.3,0.8-0.6c0.1-0.4-0.2-0.7-0.6-0.8c0,0-0.7-0.1-1.8-0.1c-2,0-5.5,0.3-8.5,2.3
	c-0.9,0.6-1.8,1.4-2.5,2.4c-2.4,3.3-12.8,12-19.7,17.6c-2.3,1.8-4.2,3.3-5.3,4.2c-0.2,0.2-0.4,0.4-0.6,0.7c0,0.1-0.3,0.3-0.6,0.6
	c1.1-9.5,6.2-40.3,27.2-65.4c0.8,0.1,1.6,0.2,2.4,0.2c0.3,0,0.7,0,1,0l-5.2,20.5c-0.1,0.4,0.2,0.8,0.5,0.9c0.4,0.1,0.7-0.1,0.8-0.5
	l5.4-21.2c1.5-0.3,2.9-0.9,4.3-1.9c1.9-1.3,8.5-4.5,10.5-8l6-4.9c0,0,1.3-1.1,2.6-2.8c2.7,6.9,4.4,16.5,5.9,29.5
	c0.5,4.6,0.7,9,0.7,13.3c0,15.9-3,29.8-5.2,38.4c-0.3-8.5-1.7-22.9-1.7-32.9c0-3.2,0.1-5.9,0.4-7.8c0.6-3.4,0.8-6.8,0.8-9.7
	c0-5.8-0.8-10-0.8-10c-0.1-0.4-0.4-0.7-0.8-0.6c-0.4,0.1-0.7,0.5-0.6,0.9c0,0,0.8,4.1,0.8,9.7c0,2.9-0.2,6.1-0.8,9.5
	c-0.4,2-0.5,4.8-0.5,8c0,11.6,1.8,28.9,1.8,36.2c0,1,0,1.8-0.1,2.3v0.1c-0.4,1.9-0.6,3.9-0.6,6c0.1,6.3,1.7,12.7,4.5,15.4
	C432.9,291.6,428.1,292.1,423.7,292.3"/>
<path class="st2" d="M312.7,169.7c0.2,0,0.4-0.1,0.6-0.3c0,0,0.6-0.8,1.3-1.4l0,0.1l0.3,0.4c0.2,0.3,0.7,0.4,1,0.2
	c0.3-0.2,0.4-0.7,0.2-0.9l-0.3-0.4c-0.1,0-0.1-0.1-0.1-0.1c0-0.1,0.2-0.1,0.2,0l0.1,0c0.3,0.2,0.7,0.2,1-0.1c0.2-0.3,0.2-0.7-0.1-1
	c-0.3-0.3-0.6-0.4-1-0.4c-2.1,0.2-3.7,2.9-3.8,2.9c-0.2,0.3-0.2,0.8,0.2,1C312.4,169.7,312.6,169.7,312.7,169.7"/>
<path class="st2" d="M313.2,227c-0.3,0.2-0.3,0.7-0.1,1c0.2,0.1,0.4,0.2,0.6,0.2c0.2,0,0.3-0.1,0.5-0.2l0.6-0.5
	c0.5,0.2,1,0.3,1.1,0.4c0.4,0.1,0.7-0.2,0.8-0.5c0.1-0.4-0.1-0.8-0.5-0.9c0,0-2.4-0.8-2.6-1.3c-0.2-0.3-0.7-0.4-1-0.2
	c-0.4,0.2-0.5,0.6-0.2,1c0.3,0.4,0.6,0.7,1,1L313.2,227z"/>
<path class="st2" d="M293.9,142.5c-0.2,0.4-0.1,0.8,0.2,1l1.2,0.7l-0.3,0.5c-0.3,0.3-0.2,0.8,0.1,1c0.4,0.2,0.8,0.1,1-0.2l0.3-0.6
	l1.3,0.9c0.1,0.1,0.2,0.1,0.4,0.1c0.2,0,0.5-0.1,0.6-0.3c0.2-0.3,0.1-0.7-0.2-1l-3.7-2.4C294.6,142.1,294.1,142.2,293.9,142.5"/>
<path class="st2" d="M348.2,142.3c-0.4,0-0.7-0.1-0.8-0.1c0-0.1-0.1-0.1-0.1-0.1c-0.3-0.3-0.7-0.3-0.9,0c0,0.1-0.2,0-0.3,0.5
	c0.1,0.8,0.7,1.2,2.1,1.2h0c0.4,0,0.7-0.3,0.7-0.7C348.9,142.7,348.6,142.4,348.2,142.3"/>
<path class="st2" d="M344.7,137.3c-0.1,0.4,0.2,0.8,0.6,0.8h0.1c0.4,0,0.7-0.2,0.8-0.6l0-0.3c0.5,0.1,1.1,0.2,1.7,0.2
	c0.4,0,0.7-0.3,0.7-0.7c0-0.4-0.3-0.7-0.7-0.7c-2,0-4-1.3-4-1.3c-0.4-0.2-0.8-0.1-1,0.2c-0.2,0.3-0.1,0.8,0.2,1c0,0,0.6,0.4,1.6,0.8
	L344.7,137.3z"/>
<polygon class="st2" points="344.9,145.1 344.9,145.1 344.8,145.1 "/>
<path class="st2" d="M347.6,144.7c-1.1-0.1-1.8-0.7-1.8-0.7c-0.3-0.3-0.7-0.2-1,0.1c-0.3,0.3-0.2,0.7,0.1,1c0.1,0,1.1,1,2.7,1
	c0.4,0,0.7-0.3,0.7-0.7C348.4,145.1,348,144.7,347.6,144.7"/>
<path class="st2" d="M409.7,178.2c0.2,0,0.4-0.1,0.5-0.3l5.7-5.7c0.3-0.2,0.3-0.7,0-1c-0.2-0.3-0.7-0.3-1,0l-5.7,5.8
	c-0.3,0.3-0.3,0.7,0,1C409.4,178.1,409.5,178.2,409.7,178.2"/>
</svg>
